Oswald--700.ufo
<glyph name="quotesingle" format="1">
  <advance width="497"/>
  <unicode hex="0027"/>
  <outline>
    <contour>
      <point x="155" y="1049" type="line"/>
      <point x="315" y="1049" type="line"/>
      <point x="488" y="1658" type="line"/>
      <point x="218" y="1658" type="line"/>
    </contour>
  </outline>
</glyph>
<glyph name="parenleft" format="1">
  <advance width="692"/>
  <unicode hex="0028"/>
  <outline>
    <contour>
      <point x="620" y="-370" type="curve"/>
      <point x="620" y="-136" type="line"/>
      <point x="473" y="-136"/>
      <point x="436" y="131"/>
      <point x="436" y="646" type="curve" smooth="yes"/>
      <point x="436" y="1152"/>
      <point x="465" y="1443"/>
      <point x="620" y="1443" type="curve"/>
      <point x="620" y="1677" type="line"/>
      <point x="168" y="1679"/>
      <point x="128" y="1207"/>
      <point x="128" y="646" type="curve" smooth="yes"/>
      <point x="128" y="121"/>
      <point x="168" y="-373"/>
    </contour>
  </outline>
</glyph>
<glyph name="asterisk" format="1">
  <advance width="865"/>
  <unicode hex="002A"/>
  <outline>
    <contour>
      <point x="397" y="923" type="line"/>
      <point x="524" y="1143" type="line"/>
      <point x="605" y="923" type="line"/>
      <point x="812" y="1038" type="line"/>
      <point x="684" y="1245" type="line"/>
      <point x="915" y="1330" type="line"/>
      <point x="862" y="1529" type="line"/>
      <point x="650" y="1416" type="line"/>
      <point x="701" y="1657" type="line"/>
      <point x="455" y="1657" type="line"/>
      <point x="457" y="1417" type="line"/>
      <point x="267" y="1528" type="line"/>
      <point x="173" y="1331" type="line"/>
      <point x="384" y="1246" type="line"/>
      <point x="216" y="1037" type="line"/>
    </contour>
  </outline>
</glyph>
<glyph name="hyphen" format="1">
  <advance width="784"/>
  <unicode hex="002D"/>
  <outline>
    <contour>
      <point x="141" y="600" type="line"/>
      <point x="668" y="600" type="line"/>
      <point x="691" y="813" type="line"/>
      <point x="163" y="813" type="line"/>
    </contour>
  </outline>
</glyph>
<glyph name="slash" format="1">
  <advance width="859"/>
  <unicode hex="002F"/>
  <outline>
    <contour>
      <point x="37" y="0" type="line"/>
      <point x="220" y="0" type="line"/>
      <point x="896" y="1658" type="line"/>
      <point x="712" y="1658" type="line"/>
    </contour>
  </outline>
</glyph>
<glyph name="zero" format="1">
  <advance width="1094"/>
  <unicode hex="0030"/>
  <outline>
    <contour>
      <point x="548" y="274" type="curve" smooth="yes"/>
      <point x="454" y="274"/>
      <point x="446" y="391"/>
      <point x="446" y="454" type="curve" smooth="yes"/>
      <point x="446" y="1187" type="line" smooth="yes"/>
      <point x="446" y="1256"/>
      <point x="443" y="1377"/>
      <point x="548" y="1377" type="curve" smooth="yes"/>
      <point x="650" y="1377"/>
      <point x="650" y="1256"/>
      <point x="650" y="1187" type="curve" smooth="yes"/>
      <point x="650" y="454" type="line" smooth="yes"/>
      <point x="650" y="390"/>
      <point x="643" y="274"/>
    </contour>
    <contour>
      <point x="548" y="-30" type="curve" smooth="yes"/>
      <point x="841" y="-30"/>
      <point x="999" y="166"/>
      <point x="999" y="445" type="curve" smooth="yes"/>
      <point x="999" y="1197" type="line" smooth="yes"/>
      <point x="999" y="1486"/>
      <point x="856" y="1683"/>
      <point x="548" y="1683" type="curve" smooth="yes"/>
      <point x="237" y="1683"/>
      <point x="95" y="1487"/>
      <point x="95" y="1197" type="curve" smooth="yes"/>
      <point x="95" y="445" type="line" smooth="yes"/>
      <point x="95" y="164"/>
      <point x="249" y="-30"/>
    </contour>
  </outline>
</glyph>
<glyph name="three" format="1">
  <advance width="1095"/>
  <unicode hex="0033"/>
  <outline>
    <contour>
      <point x="504" y="-29" type="curve" smooth="yes"/>
      <point x="833" y="-29"/>
      <point x="978" y="183"/>
      <point x="1010" y="487" type="curve" smooth="yes"/>
      <point x="1034" y="720"/>
      <point x="960" y="828"/>
      <point x="844" y="872" type="curve"/>
      <point x="964" y="904"/>
      <point x="1068" y="1042"/>
      <point x="1088" y="1234" type="curve" smooth="yes"/>
      <point x="1119" y="1529"/>
      <point x="966" y="1684"/>
      <point x="679" y="1684" type="curve" smooth="yes"/>
      <point x="398" y="1684"/>
      <point x="211" y="1518"/>
      <point x="179" y="1221" type="curve" smooth="yes"/>
      <point x="169" y="1123" type="line"/>
      <point x="506" y="1123" type="line"/>
      <point x="507" y="1127"/>
      <point x="514" y="1202"/>
      <point x="515" y="1206" type="curve" smooth="yes"/>
      <point x="529" y="1327"/>
      <point x="556" y="1413"/>
      <point x="652" y="1413" type="curve" smooth="yes"/>
      <point x="746" y="1413"/>
      <point x="767" y="1343"/>
      <point x="753" y="1214" type="curve" smooth="yes"/>
      <point x="736" y="1049"/>
      <point x="691" y="976"/>
      <point x="546" y="974" type="curve" smooth="yes"/>
      <point x="494" y="974" type="line"/>
      <point x="468" y="734" type="line"/>
      <point x="471" y="734"/>
      <point x="524" y="734"/>
      <point x="526" y="734" type="curve" smooth="yes"/>
      <point x="668" y="730"/>
      <point x="693" y="642"/>
      <point x="676" y="478" type="curve" smooth="yes"/>
      <point x="660" y="332"/>
      <point x="636" y="253"/>
      <point x="538" y="253" type="curve" smooth="yes"/>
      <point x="440" y="253"/>
      <point x="424" y="324"/>
      <point x="440" y="487" type="curve" smooth="yes"/>
      <point x="440" y="491"/>
      <point x="445" y="540"/>
      <point x="446" y="544" type="curve"/>
      <point x="109" y="544" type="line"/>
      <point x="102" y="485" type="line"/>
      <point x="70" y="177"/>
      <point x="161" y="-29"/>
    </contour>
  </outline>
</glyph>
<glyph name="eight" format="1">
  <advance width="1095"/>
  <unicode hex="0038"/>
  <outline>
    <contour>
      <point x="498" y="-26" type="curve" smooth="yes"/>
      <point x="835" y="-26"/>
      <point x="978" y="186"/>
      <point x="1005" y="493" type="curve" smooth="yes"/>
      <point x="1019" y="659"/>
      <point x="975" y="807"/>
      <point x="853" y="874" type="curve"/>
      <point x="946" y="936"/>
      <point x="1030" y="1051"/>
      <point x="1052" y="1233" type="curve" smooth="yes"/>
      <point x="1087" y="1511"/>
      <point x="961" y="1680"/>
      <point x="678" y="1680" type="curve" smooth="yes"/>
      <point x="396" y="1680"/>
      <point x="229" y="1513"/>
      <point x="205" y="1233" type="curve" smooth="yes"/>
      <point x="190" y="1051"/>
      <point x="252" y="937"/>
      <point x="331" y="874" type="curve"/>
      <point x="194" y="807"/>
      <point x="120" y="659"/>
      <point x="101" y="493" type="curve" smooth="yes"/>
      <point x="66" y="187"/>
      <point x="164" y="-26"/>
    </contour>
    <contour>
      <point x="524" y="223" type="curve" smooth="yes"/>
      <point x="411" y="223"/>
      <point x="418" y="371"/>
      <point x="428" y="469" type="curve" smooth="yes"/>
      <point x="442" y="595"/>
      <point x="466" y="725"/>
      <point x="577" y="725" type="curve" smooth="yes"/>
      <point x="689" y="725"/>
      <point x="685" y="594"/>
      <point x="671" y="469" type="curve"/>
      <point x="661" y="373"/>
      <point x="639" y="223"/>
    </contour>
    <contour>
      <point x="605" y="996" type="curve" smooth="yes"/>
      <point x="528" y="996"/>
      <point x="507" y="1084"/>
      <point x="524" y="1245" type="curve" smooth="yes"/>
      <point x="535" y="1355"/>
      <point x="577" y="1428"/>
      <point x="651" y="1428" type="curve" smooth="yes"/>
      <point x="722" y="1428"/>
      <point x="747" y="1354"/>
      <point x="736" y="1245" type="curve" smooth="yes"/>
      <point x="719" y="1084"/>
      <point x="678" y="996"/>
    </contour>
  </outline>
</glyph>
<glyph name="colon" format="1">
  <advance width="564"/>
  <unicode hex="003A"/>
  <outline>
    <contour>
      <point x="135" y="119" type="line"/>
      <point x="448" y="119" type="line"/>
      <point x="448" y="428" type="line"/>
      <point x="135" y="428" type="line"/>
    </contour>
    <contour>
      <point x="135" y="842" type="line"/>
      <point x="448" y="842" type="line"/>
      <point x="448" y="1152" type="line"/>
      <point x="135" y="1152" type="line"/>
    </contour>
  </outline>
</glyph>
<glyph name="equal" format="1">
  <advance width="905"/>
  <unicode hex="003D"/>
  <outline>
    <contour>
      <point x="131" y="511" type="line"/>
      <point x="782" y="511" type="line"/>
      <point x="803" y="714" type="line"/>
      <point x="152" y="714" type="line"/>
    </contour>
    <contour>
      <point x="172" y="899" type="line"/>
      <point x="822" y="899" type="line"/>
      <point x="843" y="1101" type="line"/>
      <point x="193" y="1101" type="line"/>
    </contour>
  </outline>
</glyph>
<glyph name="question" format="1">
  <advance width="993"/>
  <unicode hex="003F"/>
  <outline>
    <contour>
      <point x="265" y="435" type="line"/>
      <point x="569" y="435" type="line"/>
      <point x="569" y="635" type="line"/>
      <point x="759" y="768"/>
      <point x="922" y="1017"/>
      <point x="922" y="1265" type="curve" smooth="yes"/>
      <point x="922" y="1528"/>
      <point x="763" y="1685"/>
      <point x="469" y="1685" type="curve" smooth="yes"/>
      <point x="166" y="1685"/>
      <point x="56" y="1506"/>
      <point x="70" y="1282" type="curve" smooth="yes"/>
      <point x="70" y="1220"/>
      <point x="83" y="1176"/>
      <point x="100" y="1108" type="curve"/>
      <point x="402" y="1176" type="line"/>
      <point x="390" y="1214"/>
      <point x="381" y="1239"/>
      <point x="381" y="1282" type="curve" smooth="yes"/>
      <point x="376" y="1353"/>
      <point x="418" y="1397"/>
      <point x="476" y="1397" type="curve" smooth="yes"/>
      <point x="533" y="1397"/>
      <point x="586" y="1369"/>
      <point x="591" y="1278" type="curve" smooth="yes"/>
      <point x="605" y="1055"/>
      <point x="443" y="847"/>
      <point x="265" y="700" type="curve"/>
    </contour>
    <contour>
      <point x="256" y="0" type="line"/>
      <point x="582" y="0" type="line"/>
      <point x="582" y="317" type="line"/>
      <point x="256" y="317" type="line"/>
    </contour>
  </outline>
</glyph>
<glyph name="B" format="1">
  <advance width="1198"/>
  <unicode hex="0042"/>
  <outline>
    <contour>
      <point x="72" y="0" type="line"/>
      <point x="579" y="0" type="line" smooth="yes"/>
      <point x="894" y="0"/>
      <point x="1096" y="150"/>
      <point x="1128" y="491" type="curve" smooth="yes"/>
      <point x="1150" y="729"/>
      <point x="1064" y="865"/>
      <point x="876" y="891" type="curve"/>
      <point x="1028" y="917"/>
      <point x="1129" y="1022"/>
      <point x="1154" y="1225" type="curve" smooth="yes"/>
      <point x="1199" y="1590"/>
      <point x="961" y="1658"/>
      <point x="676" y="1658" type="curve" smooth="yes"/>
      <point x="246" y="1658" type="line"/>
    </contour>
    <contour>
      <point x="459" y="252" type="line"/>
      <point x="511" y="755" type="line"/>
      <point x="585" y="755" type="line" smooth="yes"/>
      <point x="751" y="755"/>
      <point x="801" y="683"/>
      <point x="782" y="495" type="curve" smooth="yes"/>
      <point x="764" y="333"/>
      <point x="705" y="252"/>
      <point x="538" y="252" type="curve" smooth="yes"/>
    </contour>
    <contour>
      <point x="537" y="993" type="line"/>
      <point x="581" y="1416" type="line"/>
      <point x="637" y="1416" type="line" smooth="yes"/>
      <point x="782" y="1416"/>
      <point x="853" y="1358"/>
      <point x="839" y="1218" type="curve" smooth="yes"/>
      <point x="823" y="1072"/>
      <point x="777" y="993"/>
      <point x="609" y="993" type="curve" smooth="yes"/>
    </contour>
  </outline>
</glyph>
<glyph name="C" format="1">
  <advance width="1146"/>
  <unicode hex="0043"/>
  <outline>
    <contour>
      <point x="541" y="-23" type="curve" smooth="yes"/>
      <point x="911" y="-23"/>
      <point x="1039" y="188"/>
      <point x="1069" y="473" type="curve"/>
      <point x="1083" y="615" type="line"/>
      <point x="731" y="615" type="line"/>
      <point x="714" y="445" type="line" smooth="yes"/>
      <point x="702" y="338"/>
      <point x="688" y="232"/>
      <point x="569" y="232" type="curve" smooth="yes"/>
      <point x="461" y="232"/>
      <point x="448" y="320"/>
      <point x="462" y="445" type="curve" smooth="yes"/>
      <point x="542" y="1210" type="line" smooth="yes"/>
      <point x="554" y="1320"/>
      <point x="573" y="1426"/>
      <point x="694" y="1426" type="curve" smooth="yes"/>
      <point x="817" y="1426"/>
      <point x="805" y="1321"/>
      <point x="795" y="1221" type="curve" smooth="yes"/>
      <point x="778" y="1056" type="line"/>
      <point x="1130" y="1056" type="line"/>
      <point x="1145" y="1202" type="line" smooth="yes"/>
      <point x="1175" y="1485"/>
      <point x="1085" y="1681"/>
      <point x="721" y="1681" type="curve" smooth="yes"/>
      <point x="344" y="1681"/>
      <point x="203" y="1469"/>
      <point x="167" y="1123" type="curve" smooth="yes"/>
      <point x="105" y="533" type="line" smooth="yes"/>
      <point x="69" y="196"/>
      <point x="164" y="-23"/>
    </contour>
  </outline>
</glyph>
<glyph name="D" format="1">
  <advance width="1189"/>
  <unicode hex="0044"/>
  <outline>
    <contour>
      <point x="459" y="250" type="line"/>
      <point x="580" y="1406" type="line"/>
      <point x="637" y="1406" type="line" smooth="yes"/>
      <point x="804" y="1406"/>
      <point x="813" y="1345"/>
      <point x="797" y="1190" type="curve" smooth="yes"/>
      <point x="723" y="487" type="line" smooth="yes"/>
      <point x="706" y="326"/>
      <point x="689" y="250"/>
      <point x="518" y="250" type="curve" smooth="yes"/>
    </contour>
    <contour>
      <point x="72" y="0" type="line"/>
      <point x="492" y="0" type="line" smooth="yes"/>
      <point x="915" y="0"/>
      <point x="1058" y="161"/>
      <point x="1097" y="536" type="curve" smooth="yes"/>
      <point x="1160" y="1134" type="line" smooth="yes"/>
      <point x="1199" y="1505"/>
      <point x="1090" y="1658"/>
      <point x="660" y="1658" type="curve" smooth="yes"/>
      <point x="246" y="1658" type="line"/>
    </contour>
  </outline>
</glyph>
<glyph name="I" format="1">
  <advance width="610"/>
  <unicode hex="0049"/>
  <outline>
    <contour>
      <point x="76" y="0" type="line"/>
      <point x="435" y="0" type="line"/>
      <point x="609" y="1658" type="line"/>
      <point x="250" y="1658" type="line"/>
    </contour>
  </outline>
</glyph>
<glyph name="K" format="1">
  <advance width="1150"/>
  <unicode hex="004B"/>
  <outline>
    <contour>
      <point x="72" y="0" type="line"/>
      <point x="432" y="0" type="line"/>
      <point x="504" y="683" type="line"/>
      <point x="548" y="745" type="line"/>
      <point x="717" y="0" type="line"/>
      <point x="1084" y="0" type="line"/>
      <point x="854" y="910" type="line"/>
      <point x="1241" y="1658" type="line"/>
      <point x="891" y="1658" type="line"/>
      <point x="535" y="980" type="line"/>
      <point x="606" y="1658" type="line"/>
      <point x="246" y="1658" type="line"/>
    </contour>
  </outline>
</glyph>
<glyph name="N" format="1">
  <advance width="1143"/>
  <unicode hex="004E"/>
  <outline>
    <contour>
      <point x="72" y="0" type="line"/>
      <point x="380" y="0" type="line"/>
      <point x="472" y="871" type="line"/>
      <point x="729" y="0" type="line"/>
      <point x="971" y="0" type="line"/>
      <point x="1145" y="1658" type="line"/>
      <point x="846" y="1658" type="line"/>
      <point x="761" y="847" type="line"/>
      <point x="499" y="1658" type="line"/>
      <point x="246" y="1658" type="line"/>
    </contour>
  </outline>
</glyph>
<glyph name="P" format="1">
  <advance width="1162"/>
  <unicode hex="0050"/>
  <outline>
    <contour>
      <point x="122" y="0" type="line"/>
      <point x="488" y="0" type="line"/>
      <point x="488" y="706" type="line"/>
      <point x="632" y="706" type="line" smooth="yes"/>
      <point x="901" y="706"/>
      <point x="1113" y="796"/>
      <point x="1113" y="1177" type="curve" smooth="yes"/>
      <point x="1113" y="1486"/>
      <point x="972" y="1658"/>
      <point x="675" y="1658" type="curve" smooth="yes"/>
      <point x="122" y="1658" type="line"/>
    </contour>
    <contour>
      <point x="488" y="961" type="line"/>
      <point x="488" y="1401" type="line"/>
      <point x="604" y="1401" type="line" smooth="yes"/>
      <point x="755" y="1401"/>
      <point x="769" y="1310"/>
      <point x="769" y="1183" type="curve" smooth="yes"/>
      <point x="769" y="1032"/>
      <point x="744" y="961"/>
      <point x="605" y="961" type="curve" smooth="yes"/>
    </contour>
  </outline>
</glyph>
<glyph name="Q" format="1">
  <advance width="1198"/>
  <unicode hex="0051"/>
  <outline>
    <contour>
      <point x="971" y="-326" type="curve"/>
      <point x="1047" y="-107" type="line"/>
      <point x="992" y="-78"/>
      <point x="933" y="-21"/>
      <point x="881" y="36" type="curve"/>
      <point x="1039" y="119"/>
      <point x="1100" y="289"/>
      <point x="1100" y="524" type="curve" smooth="yes"/>
      <point x="1100" y="1136" type="line" smooth="yes"/>
      <point x="1100" y="1479"/>
      <point x="971" y="1681"/>
      <point x="598" y="1681" type="curve" smooth="yes"/>
      <point x="224" y="1681"/>
      <point x="99" y="1481"/>
      <point x="99" y="1136" type="curve" smooth="yes"/>
      <point x="99" y="524" type="line" smooth="yes"/>
      <point x="99" y="180"/>
      <point x="224" y="-23"/>
      <point x="598" y="-23" type="curve" smooth="yes"/>
      <point x="609" y="-23"/>
      <point x="621" y="-23"/>
      <point x="632" y="-23" type="curve"/>
      <point x="717" y="-154"/>
      <point x="878" y="-287"/>
    </contour>
    <contour>
      <point x="598" y="236" type="curve" smooth="yes"/>
      <point x="483" y="236"/>
      <point x="475" y="336"/>
      <point x="475" y="433" type="curve" smooth="yes"/>
      <point x="475" y="1228" type="line" smooth="yes"/>
      <point x="475" y="1325"/>
      <point x="483" y="1422"/>
      <point x="598" y="1422" type="curve" smooth="yes"/>
      <point x="712" y="1422"/>
      <point x="724" y="1325"/>
      <point x="724" y="1228" type="curve" smooth="yes"/>
      <point x="724" y="433" type="line" smooth="yes"/>
      <point x="724" y="336"/>
      <point x="712" y="236"/>
    </contour>
  </outline>
</glyph>
<glyph name="S" format="1">
  <advance width="1042"/>
  <unicode hex="0053"/>
  <outline>
    <contour>
      <point x="504" y="-23" type="curve" smooth="yes"/>
      <point x="767" y="-23"/>
      <point x="955" y="156"/>
      <point x="980" y="393" type="curve" smooth="yes"/>
      <point x="1004" y="621"/>
      <point x="904" y="764"/>
      <point x="777" y="888" type="curve" smooth="yes"/>
      <point x="642" y="1018" type="line" smooth="yes"/>
      <point x="570" y="1088"/>
      <point x="501" y="1155"/>
      <point x="514" y="1285" type="curve" smooth="yes"/>
      <point x="521" y="1346"/>
      <point x="560" y="1414"/>
      <point x="632" y="1417" type="curve" smooth="yes"/>
      <point x="732" y="1421"/>
      <point x="732" y="1317"/>
      <point x="719" y="1170" type="curve"/>
      <point x="1035" y="1212" type="line"/>
      <point x="1048" y="1413"/>
      <point x="1020" y="1682"/>
      <point x="670" y="1681" type="curve" smooth="yes"/>
      <point x="387" y="1680"/>
      <point x="193" y="1527"/>
      <point x="165" y="1249" type="curve" smooth="yes"/>
      <point x="142" y="1037"/>
      <point x="226" y="926"/>
      <point x="339" y="820" type="curve" smooth="yes"/>
      <point x="478" y="687" type="line" smooth="yes"/>
      <point x="579" y="591"/>
      <point x="640" y="514"/>
      <point x="626" y="374" type="curve" smooth="yes"/>
      <point x="619" y="314"/>
      <point x="593" y="250"/>
      <point x="515" y="250" type="curve" smooth="yes"/>
      <point x="419" y="250"/>
      <point x="380" y="340"/>
      <point x="399" y="550" type="curve"/>
      <point x="84" y="501" type="line"/>
      <point x="58" y="137"/>
      <point x="191" y="-23"/>
    </contour>
  </outline>
</glyph>
<glyph name="U" format="1">
  <advance width="1197"/>
  <unicode hex="0055"/>
  <outline>
    <contour>
      <point x="546" y="-23" type="curve" smooth="yes"/>
      <point x="927" y="-23"/>
      <point x="1055" y="172"/>
      <point x="1091" y="525" type="curve" smooth="yes"/>
      <point x="1210" y="1658" type="line"/>
      <point x="854" y="1658" type="line"/>
      <point x="730" y="474" type="line" smooth="yes"/>
      <point x="718" y="359"/>
      <point x="695" y="239"/>
      <point x="574" y="239" type="curve" smooth="yes"/>
      <point x="452" y="239"/>
      <point x="454" y="359"/>
      <point x="466" y="474" type="curve" smooth="yes"/>
      <point x="590" y="1658" type="line"/>
      <point x="235" y="1658" type="line"/>
      <point x="116" y="525" type="line" smooth="yes"/>
      <point x="79" y="172"/>
      <point x="165" y="-23"/>
    </contour>
  </outline>
</glyph>
<glyph name="V" format="1">
  <advance width="1068"/>
  <unicode hex="0056"/>
  <outline>
    <contour>
      <point x="296" y="0" type="line"/>
      <point x="671" y="0" type="line"/>
      <point x="1152" y="1658" type="line"/>
      <point x="826" y="1658" type="line"/>
      <point x="539" y="536" type="line"/>
      <point x="475" y="1658" type="line"/>
      <point x="166" y="1658" type="line"/>
    </contour>
  </outline>
</glyph>
<glyph name="W" format="1">
  <advance width="1432"/>
  <unicode hex="0057"/>
  <outline>
    <contour>
      <point x="257" y="0" type="line"/>
      <point x="579" y="0" type="line"/>
      <point x="715" y="1000" type="line"/>
      <point x="856" y="0" type="line"/>
      <point x="1174" y="0" type="line"/>
      <point x="1375" y="1658" type="line"/>
      <point x="1068" y="1658" type="line"/>
      <point x="968" y="700" type="line"/>
      <point x="835" y="1658" type="line"/>
      <point x="593" y="1658" type="line"/>
      <point x="466" y="695" type="line"/>
      <point x="368" y="1658" type="line"/>
      <point x="57" y="1658" type="line"/>
    </contour>
  </outline>
</glyph>
<glyph name="Y" format="1">
  <advance width="1008"/>
  <unicode hex="0059"/>
  <unicode hex="04AE"/>
  <outline>
    <contour>
      <point x="284" y="0" type="line"/>
      <point x="630" y="0" type="line"/>
      <point x="700" y="673" type="line"/>
      <point x="1118" y="1658" type="line"/>
      <point x="790" y="1658" type="line"/>
      <point x="586" y="1119" type="line"/>
      <point x="479" y="1658" type="line"/>
      <point x="141" y="1658" type="line"/>
      <point x="355" y="673" type="line"/>
    </contour>
  </outline>
</glyph>
<glyph name="Z" format="1">
  <advance width="885"/>
  <unicode hex="005A"/>
  <outline>
    <contour>
      <point x="62" y="0" type="line"/>
      <point x="830" y="0" type="line"/>
      <point x="830" y="248" type="line"/>
      <point x="414" y="248" type="line"/>
      <point x="827" y="1455" type="line"/>
      <point x="827" y="1658" type="line"/>
      <point x="78" y="1658" type="line"/>
      <point x="78" y="1409" type="line"/>
      <point x="464" y="1409" type="line"/>
      <point x="62" y="222" type="line"/>
    </contour>
  </outline>
</glyph>
<glyph name="bracketleft" format="1">
  <advance width="685"/>
  <unicode hex="005B"/>
  <outline>
    <contour>
      <point x="106" y="-381" type="line"/>
      <point x="622" y="-381" type="line"/>
      <point x="622" y="-251" type="line"/>
      <point x="368" y="-251" type="line"/>
      <point x="369" y="1528" type="line"/>
      <point x="624" y="1528" type="line"/>
      <point x="624" y="1658" type="line"/>
      <point x="107" y="1658" type="line"/>
    </contour>
  </outline>
</glyph>
<glyph name="backslash" format="1">
  <advance width="859"/>
  <unicode hex="005C"/>
  <outline>
    <contour>
      <point x="538" y="0" type="line"/>
      <point x="722" y="0" type="line"/>
      <point x="395" y="1658" type="line"/>
      <point x="211" y="1658" type="line"/>
    </contour>
  </outline>
</glyph>
<glyph name="bracketright" format="1">
  <advance width="666"/>
  <unicode hex="005D"/>
  <outline>
    <contour>
      <point x="43" y="-381" type="line"/>
      <point x="560" y="-381" type="line"/>
      <point x="558" y="1658" type="line"/>
      <point x="42" y="1658" type="line"/>
      <point x="42" y="1528" type="line"/>
      <point x="296" y="1528" type="line"/>
      <point x="298" y="-252" type="line"/>
      <point x="43" y="-252" type="line"/>
    </contour>
  </outline>
</glyph>
<glyph name="asciicircum" format="1">
  <advance width="978"/>
  <unicode hex="005E"/>
  <outline>
    <contour>
      <point x="62" y="971" type="line"/>
      <point x="345" y="971" type="line"/>
      <point x="488" y="1373" type="line"/>
      <point x="632" y="971" type="line"/>
      <point x="916" y="971" type="line"/>
      <point x="622" y="1658" type="line"/>
      <point x="355" y="1658" type="line"/>
    </contour>
  </outline>
</glyph>
<glyph name="underscore" format="1">
  <advance width="750"/>
  <unicode hex="005F"/>
  <outline>
    <contour>
      <point x="-85" y="-339" type="line"/>
      <point x="665" y="-339" type="line"/>
      <point x="688" y="-117" type="line"/>
      <point x="-63" y="-117" type="line"/>
    </contour>
  </outline>
</glyph>
<glyph name="a" format="1">
  <advance width="971"/>
  <unicode hex="0061"/>
  <outline>
    <contour>
      <point x="295" y="-20" type="curve"/>
      <point x="421" y="-20"/>
      <point x="504" y="70"/>
      <point x="543" y="168" type="curve"/>
      <point x="543" y="141"/>
      <point x="554" y="0"/>
      <point x="554" y="0" type="curve"/>
      <point x="846" y="0" type="line"/>
      <point x="845" y="62"/>
      <point x="841" y="150"/>
      <point x="856" y="297" type="curve" smooth="yes"/>
      <point x="914" y="847" type="line" smooth="yes"/>
      <point x="936" y="1057"/>
      <point x="835" y="1204"/>
      <point x="595" y="1204" type="curve" smooth="yes"/>
      <point x="339" y="1204"/>
      <point x="184" y="1089"/>
      <point x="137" y="828" type="curve"/>
      <point x="136" y="823"/>
      <point x="131" y="794"/>
      <point x="130" y="789" type="curve"/>
      <point x="437" y="776" type="line"/>
      <point x="453" y="862" type="line" smooth="yes"/>
      <point x="461" y="915"/>
      <point x="481" y="960"/>
      <point x="539" y="960" type="curve" smooth="yes"/>
      <point x="598" y="960"/>
      <point x="605" y="914"/>
      <point x="599" y="851" type="curve" smooth="yes"/>
      <point x="587" y="735" type="line"/>
      <point x="394" y="660"/>
      <point x="85" y="585"/>
      <point x="51" y="268" type="curve" smooth="yes"/>
      <point x="37" y="130"/>
      <point x="119" y="-18"/>
    </contour>
    <contour>
      <point x="438" y="208" type="curve" smooth="yes"/>
      <point x="385" y="208"/>
      <point x="351" y="257"/>
      <point x="359" y="335" type="curve" smooth="yes"/>
      <point x="370" y="429"/>
      <point x="460" y="536"/>
      <point x="571" y="589" type="curve"/>
      <point x="537" y="266" type="line"/>
      <point x="514" y="238"/>
      <point x="474" y="208"/>
    </contour>
  </outline>
</glyph>
<glyph name="c" format="1">
  <advance width="959"/>
  <unicode hex="0063"/>
  <outline>
    <contour>
      <point x="490" y="-21" type="curve" smooth="yes"/>
      <point x="739" y="-21"/>
      <point x="889" y="101"/>
      <point x="889" y="339" type="curve" smooth="yes"/>
      <point x="889" y="482" type="line"/>
      <point x="567" y="482" type="line"/>
      <point x="567" y="326" type="line" smooth="yes"/>
      <point x="567" y="241"/>
      <point x="542" y="211"/>
      <point x="491" y="211" type="curve" smooth="yes"/>
      <point x="444" y="211"/>
      <point x="416" y="238"/>
      <point x="416" y="346" type="curve" smooth="yes"/>
      <point x="416" y="837" type="line" smooth="yes"/>
      <point x="416" y="942"/>
      <point x="441" y="975"/>
      <point x="491" y="975" type="curve" smooth="yes"/>
      <point x="539" y="975"/>
      <point x="567" y="952"/>
      <point x="567" y="857" type="curve" smooth="yes"/>
      <point x="567" y="723" type="line"/>
      <point x="889" y="723" type="line"/>
      <point x="889" y="848" type="line" smooth="yes"/>
      <point x="889" y="1088"/>
      <point x="741" y="1204"/>
      <point x="490" y="1204" type="curve" smooth="yes"/>
      <point x="229" y="1204"/>
      <point x="81" y="1057"/>
      <point x="81" y="807" type="curve" smooth="yes"/>
      <point x="81" y="379" type="line" smooth="yes"/>
      <point x="81" y="128"/>
      <point x="229" y="-21"/>
    </contour>
  </outline>
</glyph>
<glyph name="d" format="1">
  <advance width="1025"/>
  <unicode hex="0064"/>
  <outline>
    <contour>
      <point x="312" y="-20" type="curve" smooth="yes"/>
      <point x="391" y="-20"/>
      <point x="473" y="19"/>
      <point x="551" y="89" type="curve"/>
      <point x="542" y="0" type="line"/>
      <point x="870" y="0" type="line"/>
      <point x="1044" y="1658" type="line"/>
      <point x="716" y="1658" type="line"/>
      <point x="659" y="1111" type="line"/>
      <point x="600" y="1167"/>
      <point x="525" y="1204"/>
      <point x="440" y="1204" type="curve" smooth="yes"/>
      <point x="251" y="1204"/>
      <point x="146" y="1041"/>
      <point x="123" y="821" type="curve" smooth="yes"/>
      <point x="74" y="354" type="line" smooth="yes"/>
      <point x="47" y="102"/>
      <point x="133" y="-21"/>
    </contour>
    <contour>
      <point x="473" y="193" type="curve" smooth="yes"/>
      <point x="408" y="193"/>
      <point x="393" y="257"/>
      <point x="402" y="332" type="curve" smooth="yes"/>
      <point x="457" y="862" type="line" smooth="yes"/>
      <point x="465" y="935"/>
      <point x="495" y="995"/>
      <point x="559" y="995" type="curve" smooth="yes"/>
      <point x="587" y="995"/>
      <point x="618" y="984"/>
      <point x="644" y="969" type="curve"/>
      <point x="565" y="222" type="line"/>
      <point x="531" y="203"/>
      <point x="496" y="193"/>
    </contour>
  </outline>
</glyph>
<glyph name="e" format="1">
  <advance width="957"/>
  <unicode hex="0065"/>
  <outline>
    <contour>
      <point x="437" y="-20" type="curve" smooth="yes"/>
      <point x="683" y="-20"/>
      <point x="840" y="105"/>
      <point x="865" y="344" type="curve" smooth="yes"/>
      <point x="877" y="455" type="line"/>
      <point x="572" y="455" type="line"/>
      <point x="560" y="334" type="line"/>
      <point x="550" y="249"/>
      <point x="515" y="214"/>
      <point x="461" y="214" type="curve" smooth="yes"/>
      <point x="398" y="214"/>
      <point x="386" y="273"/>
      <point x="395" y="367" type="curve" smooth="yes"/>
      <point x="417" y="571" type="line"/>
      <point x="889" y="571" type="line"/>
      <point x="914" y="797" type="line" smooth="yes"/>
      <point x="942" y="1061"/>
      <point x="832" y="1204"/>
      <point x="565" y="1204" type="curve" smooth="yes"/>
      <point x="305" y="1204"/>
      <point x="143" y="1057"/>
      <point x="115" y="799" type="curve" smooth="yes"/>
      <point x="72" y="384" type="line" smooth="yes"/>
      <point x="45" y="128"/>
      <point x="174" y="-20"/>
    </contour>
    <contour>
      <point x="433" y="726" type="line"/>
      <point x="443" y="822" type="line" smooth="yes"/>
      <point x="455" y="934"/>
      <point x="486" y="970"/>
      <point x="539" y="970" type="curve" smooth="yes"/>
      <point x="593" y="970"/>
      <point x="623" y="939"/>
      <point x="613" y="844" type="curve" smooth="yes"/>
      <point x="601" y="726" type="line"/>
    </contour>
  </outline>
</glyph>
<glyph name="g" format="1">
  <advance width="1015"/>
  <unicode hex="0067"/>
  <outline>
    <contour>
      <point x="459" y="-355" type="curve" smooth="yes"/>
      <point x="779" y="-355"/>
      <point x="892" y="-231"/>
      <point x="912" y="-46" type="curve" smooth="yes"/>
      <point x="929" y="119"/>
      <point x="862" y="209"/>
      <point x="634" y="239" type="curve" smooth="yes"/>
      <point x="554" y="251"/>
      <point x="431" y="264"/>
      <point x="385" y="272" type="curve" smooth="yes"/>
      <point x="316" y="282"/>
      <point x="281" y="296"/>
      <point x="280" y="318" type="curve" smooth="yes"/>
      <point x="279" y="343"/>
      <point x="299" y="371"/>
      <point x="324" y="399" type="curve"/>
      <point x="362" y="381"/>
      <point x="443" y="365"/>
      <point x="506" y="365" type="curve" smooth="yes"/>
      <point x="774" y="365"/>
      <point x="907" y="524"/>
      <point x="933" y="770" type="curve" smooth="yes"/>
      <point x="944" y="880"/>
      <point x="922" y="960"/>
      <point x="899" y="1001" type="curve"/>
      <point x="954" y="1032"/>
      <point x="1068" y="1079"/>
      <point x="1107" y="1090" type="curve"/>
      <point x="1049" y="1253" type="line"/>
      <point x="1003" y="1231" type="line"/>
      <point x="935" y="1198"/>
      <point x="869" y="1141"/>
      <point x="829" y="1100" type="curve"/>
      <point x="782" y="1170"/>
      <point x="688" y="1204"/>
      <point x="572" y="1204" type="curve" smooth="yes"/>
      <point x="320" y="1204"/>
      <point x="150" y="1071"/>
      <point x="118" y="769" type="curve" smooth="yes"/>
      <point x="102" y="612"/>
      <point x="144" y="528"/>
      <point x="216" y="471" type="curve"/>
      <point x="119" y="400"/>
      <point x="42" y="335"/>
      <point x="48" y="237" type="curve" smooth="yes"/>
      <point x="50" y="183"/>
      <point x="83" y="141"/>
      <point x="180" y="103" type="curve"/>
      <point x="96" y="50"/>
      <point x="-2" y="-30"/>
      <point x="-14" y="-133" type="curve" smooth="yes"/>
      <point x="-35" y="-341"/>
      <point x="269" y="-355"/>
    </contour>
    <contour>
      <point x="481" y="-148" type="curve" smooth="yes"/>
      <point x="332" y="-148"/>
      <point x="293" y="-118"/>
      <point x="299" y="-61" type="curve" smooth="yes"/>
      <point x="303" y="-17"/>
      <point x="338" y="29"/>
      <point x="360" y="57" type="curve"/>
      <point x="537" y="36" type="line" smooth="yes"/>
      <point x="634" y="24"/>
      <point x="666" y="-1"/>
      <point x="650" y="-72" type="curve" smooth="yes"/>
      <point x="640" y="-127"/>
      <point x="589" y="-148"/>
    </contour>
    <contour>
      <point x="510" y="564" type="curve" smooth="yes"/>
      <point x="429" y="564"/>
      <point x="427" y="643"/>
      <point x="443" y="783" type="curve"/>
      <point x="458" y="929"/>
      <point x="469" y="1006"/>
      <point x="557" y="1006" type="curve" smooth="yes"/>
      <point x="644" y="1006"/>
      <point x="643" y="941"/>
      <point x="628" y="783" type="curve"/>
      <point x="611" y="629"/>
      <point x="593" y="564"/>
    </contour>
  </outline>
</glyph>
<glyph name="j" format="1">
  <advance width="560"/>
  <unicode hex="006A"/>
  <outline>
    <contour>
      <point x="-105" y="-336" type="line"/>
      <point x="-54" y="-351"/>
      <point x="5" y="-362"/>
      <point x="66" y="-362" type="curve" smooth="yes"/>
      <point x="267" y="-362"/>
      <point x="385" y="-233"/>
      <point x="405" y="-46" type="curve" smooth="yes"/>
      <point x="534" y="1184" type="line"/>
      <point x="205" y="1184" type="line"/>
      <point x="80" y="-7" type="line" smooth="yes"/>
      <point x="73" y="-79"/>
      <point x="34" y="-108"/>
      <point x="-22" y="-108" type="curve" smooth="yes"/>
      <point x="-41" y="-108"/>
      <point x="-63" y="-104"/>
      <point x="-81" y="-100" type="curve"/>
    </contour>
    <contour>
      <point x="225" y="1382" type="line"/>
      <point x="555" y="1382" type="line"/>
      <point x="580" y="1617" type="line"/>
      <point x="250" y="1617" type="line"/>
    </contour>
  </outline>
</glyph>
<glyph name="k" format="1">
  <advance width="1104"/>
  <unicode hex="006B"/>
  <outline>
    <contour>
      <point x="105" y="1" type="line"/>
      <point x="436" y="1" type="line"/>
      <point x="436" y="451" type="line"/>
      <point x="524" y="562" type="line"/>
      <point x="730" y="0" type="line"/>
      <point x="1095" y="0" type="line"/>
      <point x="786" y="699" type="line"/>
      <point x="1098" y="1184" type="line"/>
      <point x="723" y="1184" type="line"/>
      <point x="436" y="740" type="line"/>
      <point x="436" y="1659" type="line"/>
      <point x="105" y="1659" type="line"/>
    </contour>
  </outline>
</glyph>
<glyph name="p" format="1">
  <advance width="1028"/>
  <unicode hex="0070"/>
  <outline>
    <contour>
      <point x="14" y="-390" type="line"/>
      <point x="342" y="-390" type="line"/>
      <point x="392" y="89" type="line"/>
      <point x="461" y="22"/>
      <point x="543" y="-20"/>
      <point x="628" y="-20" type="curve" smooth="yes"/>
      <point x="802" y="-20"/>
      <point x="906" y="136"/>
      <point x="929" y="355" type="curve" smooth="yes"/>
      <point x="981" y="849" type="line" smooth="yes"/>
      <point x="1000" y="1029"/>
      <point x="949" y="1199"/>
      <point x="765" y="1204" type="curve" smooth="yes"/>
      <point x="680" y="1207"/>
      <point x="586" y="1168"/>
      <point x="499" y="1097" type="curve"/>
      <point x="507" y="1184" type="line"/>
      <point x="179" y="1184" type="line"/>
    </contour>
    <contour>
      <point x="497" y="195" type="curve" smooth="yes"/>
      <point x="464" y="196"/>
      <point x="434" y="208"/>
      <point x="406" y="226" type="curve"/>
      <point x="484" y="962" type="line"/>
      <point x="517" y="984"/>
      <point x="549" y="1000"/>
      <point x="578" y="1002" type="curve" smooth="yes"/>
      <point x="643" y="1007"/>
      <point x="662" y="941"/>
      <point x="654" y="873" type="curve" smooth="yes"/>
      <point x="598" y="339" type="line" smooth="yes"/>
      <point x="590" y="261"/>
      <point x="561" y="194"/>
    </contour>
  </outline>
</glyph>
<glyph name="s" format="1">
  <advance width="860"/>
  <unicode hex="0073"/>
  <outline>
    <contour>
      <point x="396" y="-20" type="curve" smooth="yes"/>
      <point x="592" y="-20"/>
      <point x="783" y="93"/>
      <point x="805" y="301" type="curve" smooth="yes"/>
      <point x="820" y="452"/>
      <point x="722" y="547"/>
      <point x="631" y="634" type="curve"/>
      <point x="544" y="721" type="line"/>
      <point x="475" y="786"/>
      <point x="400" y="851"/>
      <point x="409" y="903" type="curve" smooth="yes"/>
      <point x="414" y="939"/>
      <point x="446" y="976"/>
      <point x="500" y="974" type="curve" smooth="yes"/>
      <point x="570" y="970"/>
      <point x="612" y="880"/>
      <point x="626" y="801" type="curve"/>
      <point x="849" y="900" type="line"/>
      <point x="818" y="1090"/>
      <point x="701" y="1204"/>
      <point x="506" y="1204" type="curve" smooth="yes"/>
      <point x="311" y="1204"/>
      <point x="133" y="1072"/>
      <point x="110" y="878" type="curve" smooth="yes"/>
      <point x="94" y="747"/>
      <point x="184" y="628"/>
      <point x="273" y="546" type="curve" smooth="yes"/>
      <point x="363" y="462" type="line" smooth="yes"/>
      <point x="427" y="401"/>
      <point x="501" y="334"/>
      <point x="498" y="286" type="curve" smooth="yes"/>
      <point x="495" y="239"/>
      <point x="458" y="206"/>
      <point x="415" y="203" type="curve" smooth="yes"/>
      <point x="342" y="197"/>
      <point x="288" y="269"/>
      <point x="258" y="378" type="curve"/>
      <point x="19" y="279" type="line"/>
      <point x="75" y="70"/>
      <point x="196" y="-20"/>
    </contour>
  </outline>
</glyph>
<glyph name="u" format="1">
  <advance width="1024"/>
  <unicode hex="0075"/>
  <outline>
    <contour>
      <point x="257" y="-20" type="curve" smooth="yes"/>
      <point x="360" y="-20"/>
      <point x="458" y="29"/>
      <point x="551" y="109" type="curve"/>
      <point x="540" y="0" type="line"/>
      <point x="869" y="0" type="line"/>
      <point x="993" y="1184" type="line"/>
      <point x="664" y="1184" type="line"/>
      <point x="565" y="243" type="line"/>
      <point x="527" y="220"/>
      <point x="492" y="206"/>
      <point x="464" y="205" type="curve" smooth="yes"/>
      <point x="410" y="204"/>
      <point x="398" y="238"/>
      <point x="404" y="295" type="curve" smooth="yes"/>
      <point x="497" y="1184" type="line"/>
      <point x="168" y="1184" type="line"/>
      <point x="71" y="253" type="line" smooth="yes"/>
      <point x="55" y="102"/>
      <point x="112" y="-20"/>
    </contour>
  </outline>
</glyph>
<glyph name="v" format="1">
  <advance width="859"/>
  <unicode hex="0076"/>
  <outline>
    <contour>
      <point x="207" y="0" type="line"/>
      <point x="553" y="0" type="line"/>
      <point x="916" y="1184" type="line"/>
      <point x="603" y="1184" type="line"/>
      <point x="429" y="416" type="line"/>
      <point x="411" y="1184" type="line"/>
      <point x="96" y="1184" type="line"/>
    </contour>
  </outline>
</glyph>
<glyph name="x" format="1">
  <advance width="904"/>
  <unicode hex="0078"/>
  <outline>
    <contour>
      <point x="20" y="0" type="line"/>
      <point x="299" y="0" type="line"/>
      <point x="416" y="324" type="line"/>
      <point x="561" y="0" type="line"/>
      <point x="898" y="0" type="line"/>
      <point x="630" y="599" type="line"/>
      <point x="866" y="1184" type="line"/>
      <point x="607" y="1184" type="line"/>
      <point x="496" y="899" type="line"/>
      <point x="369" y="1184" type="line"/>
      <point x="33" y="1184" type="line"/>
      <point x="272" y="649" type="line"/>
    </contour>
  </outline>
</glyph>
<glyph name="bar" format="1">
  <advance width="536"/>
  <unicode hex="007C"/>
  <outline>
    <contour>
      <point x="44" y="-363" type="line"/>
      <point x="316" y="-363" type="line"/>
      <point x="529" y="1658" type="line"/>
      <point x="256" y="1658" type="line"/>
    </contour>
  </outline>
</glyph>
<glyph name="braceright" format="1">
  <advance width="780"/>
  <unicode hex="007D"/>
  <outline>
    <contour>
      <point x="77" y="-399" type="line"/>
      <point x="511" y="-399"/>
      <point x="551" y="-286"/>
      <point x="551" y="39" type="curve" smooth="yes"/>
      <point x="551" y="208" type="line" smooth="yes"/>
      <point x="551" y="498"/>
      <point x="557" y="528"/>
      <point x="683" y="528" type="curve"/>
      <point x="683" y="767" type="line"/>
      <point x="557" y="767"/>
      <point x="551" y="797"/>
      <point x="551" y="1087" type="curve" smooth="yes"/>
      <point x="551" y="1256" type="line" smooth="yes"/>
      <point x="551" y="1581"/>
      <point x="511" y="1694"/>
      <point x="77" y="1694" type="curve"/>
      <point x="77" y="1470" type="line"/>
      <point x="221" y="1470"/>
      <point x="240" y="1442"/>
      <point x="240" y="1238" type="curve" smooth="yes"/>
      <point x="240" y="1048" type="line" smooth="yes"/>
      <point x="240" y="816"/>
      <point x="277" y="680"/>
      <point x="418" y="648" type="curve"/>
      <point x="277" y="615"/>
      <point x="240" y="479"/>
      <point x="240" y="247" type="curve" smooth="yes"/>
      <point x="240" y="57" type="line" smooth="yes"/>
      <point x="240" y="-147"/>
      <point x="221" y="-175"/>
      <point x="77" y="-175" type="curve"/>
    </contour>
  </outline>
</glyph>
<glyph name="asciitilde" format="1">
  <advance width="986"/>
  <unicode hex="007E"/>
  <outline>
    <contour>
      <point x="690" y="685" type="curve" smooth="yes"/>
      <point x="784" y="685"/>
      <point x="905" y="797"/>
      <point x="961" y="895" type="curve"/>
      <point x="859" y="1014" type="line"/>
      <point x="807" y="963"/>
      <point x="746" y="917"/>
      <point x="709" y="917" type="curve" smooth="yes"/>
      <point x="633" y="917"/>
      <point x="499" y="1036"/>
      <point x="383" y="1036" type="curve" smooth="yes"/>
      <point x="295" y="1036"/>
      <point x="181" y="932"/>
      <point x="120" y="847" type="curve"/>
      <point x="210" y="709" type="line"/>
      <point x="263" y="771"/>
      <point x="330" y="806"/>
      <point x="361" y="806" type="curve" smooth="yes"/>
      <point x="440" y="806"/>
      <point x="574" y="685"/>
    </contour>
  </outline>
</glyph>
<glyph name="exclamdown" format="1">
  <advance width="482"/>
  <unicode hex="00A1"/>
  <outline>
    <contour>
      <point x="-7" y="-320" type="line"/>
      <point x="319" y="-320" type="line"/>
      <point x="354" y="917" type="line"/>
      <point x="240" y="917" type="line"/>
    </contour>
    <contour>
      <point x="155" y="1027" type="line"/>
      <point x="466" y="1027" type="line"/>
      <point x="499" y="1334" type="line"/>
      <point x="188" y="1334" type="line"/>
    </contour>
  </outline>
</glyph>
<glyph name="cent" format="1">
  <advance width="932"/>
  <unicode hex="00A2"/>
  <outline>
    <contour>
      <point x="433" y="-264" type="line"/>
      <point x="518" y="-264" type="line"/>
      <point x="518" y="-20" type="line"/>
      <point x="750" y="-10"/>
      <point x="884" y="111"/>
      <point x="884" y="339" type="curve" smooth="yes"/>
      <point x="884" y="482" type="line"/>
      <point x="562" y="482" type="line"/>
      <point x="562" y="333" type="line" smooth="yes"/>
      <point x="562" y="249"/>
      <point x="538" y="218"/>
      <point x="487" y="218" type="curve" smooth="yes"/>
      <point x="440" y="218"/>
      <point x="412" y="246"/>
      <point x="412" y="353" type="curve" smooth="yes"/>
      <point x="412" y="829" type="line" smooth="yes"/>
      <point x="412" y="935"/>
      <point x="436" y="968"/>
      <point x="486" y="968" type="curve" smooth="yes"/>
      <point x="534" y="968"/>
      <point x="562" y="944"/>
      <point x="562" y="849" type="curve" smooth="yes"/>
      <point x="562" y="723" type="line"/>
      <point x="884" y="723" type="line"/>
      <point x="884" y="848" type="line" smooth="yes"/>
      <point x="884" y="1077"/>
      <point x="752" y="1194"/>
      <point x="518" y="1203" type="curve"/>
      <point x="518" y="1445" type="line"/>
      <point x="433" y="1445" type="line"/>
      <point x="433" y="1202" type="line"/>
      <point x="206" y="1183"/>
      <point x="76" y="1040"/>
      <point x="76" y="807" type="curve" smooth="yes"/>
      <point x="76" y="379" type="line" smooth="yes"/>
      <point x="76" y="146"/>
      <point x="206" y="1"/>
      <point x="433" y="-18" type="curve"/>
    </contour>
  </outline>
</glyph>
<glyph name="yen" format="1">
  <advance width="974"/>
  <unicode hex="00A5"/>
  <outline>
    <contour>
      <point x="271" y="0" type="line"/>
      <point x="617" y="0" type="line"/>
      <point x="642" y="244" type="line"/>
      <point x="813" y="244" type="line"/>
      <point x="830" y="410" type="line"/>
      <point x="660" y="410" type="line"/>
      <point x="674" y="543" type="line"/>
      <point x="845" y="543" type="line"/>
      <point x="862" y="714" type="line"/>
      <point x="732" y="714" type="line"/>
      <point x="1105" y="1658" type="line"/>
      <point x="777" y="1658" type="line"/>
      <point x="562" y="1017" type="line"/>
      <point x="466" y="1658" type="line"/>
      <point x="128" y="1658" type="line"/>
      <point x="306" y="714" type="line"/>
      <point x="176" y="714" type="line"/>
      <point x="159" y="543" type="line"/>
      <point x="329" y="543" type="line"/>
      <point x="314" y="410" type="line"/>
      <point x="145" y="410" type="line"/>
      <point x="127" y="244" type="line"/>
      <point x="297" y="244" type="line"/>
    </contour>
  </outline>
</glyph>
<glyph name="brokenbar" format="1">
  <advance width="445"/>
  <unicode hex="00A6"/>
  <outline>
    <contour>
      <point x="19" y="-363" type="line"/>
      <point x="250" y="-363" type="line"/>
      <point x="338" y="471" type="line"/>
      <point x="107" y="471" type="line"/>
    </contour>
    <contour>
      <point x="144" y="824" type="line"/>
      <point x="375" y="824" type="line"/>
      <point x="462" y="1658" type="line"/>
      <point x="231" y="1658" type="line"/>
    </contour>
  </outline>
</glyph>
<glyph name="section" format="1">
  <advance width="965"/>
  <unicode hex="00A7"/>
  <outline>
    <contour>
      <point x="425" y="-14" type="curve" smooth="yes"/>
      <point x="668" y="-14"/>
      <point x="825" y="123"/>
      <point x="846" y="324" type="curve" smooth="yes"/>
      <point x="859" y="445"/>
      <point x="803" y="525"/>
      <point x="706" y="610" type="curve"/>
      <point x="807" y="671"/>
      <point x="880" y="740"/>
      <point x="893" y="855" type="curve" smooth="yes"/>
      <point x="906" y="981"/>
      <point x="838" y="1075"/>
      <point x="740" y="1140" type="curve" smooth="yes"/>
      <point x="584" y="1242" type="line" smooth="yes"/>
      <point x="544" y="1269"/>
      <point x="467" y="1309"/>
      <point x="475" y="1388" type="curve" smooth="yes"/>
      <point x="482" y="1451"/>
      <point x="529" y="1482"/>
      <point x="592" y="1483" type="curve" smooth="yes"/>
      <point x="690" y="1485"/>
      <point x="724" y="1397"/>
      <point x="740" y="1318" type="curve"/>
      <point x="961" y="1372" type="line"/>
      <point x="936" y="1564"/>
      <point x="825" y="1712"/>
      <point x="607" y="1712" type="curve" smooth="yes"/>
      <point x="391" y="1712"/>
      <point x="195" y="1593"/>
      <point x="184" y="1384" type="curve" smooth="yes"/>
      <point x="177" y="1269"/>
      <point x="262" y="1167"/>
      <point x="343" y="1120" type="curve"/>
      <point x="250" y="1090"/>
      <point x="162" y="1005"/>
      <point x="142" y="881" type="curve" smooth="yes"/>
      <point x="121" y="753"/>
      <point x="187" y="673"/>
      <point x="275" y="615" type="curve"/>
      <point x="449" y="501" type="line" smooth="yes"/>
      <point x="551" y="435"/>
      <point x="591" y="388"/>
      <point x="580" y="315" type="curve" smooth="yes"/>
      <point x="572" y="255"/>
      <point x="525" y="219"/>
      <point x="454" y="219" type="curve" smooth="yes"/>
      <point x="370" y="219"/>
      <point x="324" y="315"/>
      <point x="307" y="380" type="curve"/>
      <point x="80" y="321" type="line"/>
      <point x="107" y="134"/>
      <point x="207" y="-14"/>
    </contour>
    <contour>
      <point x="550" y="738" type="curve"/>
      <point x="432" y="808" type="line" smooth="yes"/>
      <point x="406" y="824"/>
      <point x="396" y="857"/>
      <point x="399" y="885" type="curve" smooth="yes"/>
      <point x="404" y="931"/>
      <point x="443" y="969"/>
      <point x="498" y="987" type="curve"/>
      <point x="588" y="928" type="line" smooth="yes"/>
      <point x="634" y="899"/>
      <point x="643" y="859"/>
      <point x="641" y="836" type="curve" smooth="yes"/>
      <point x="636" y="788"/>
      <point x="589" y="758"/>
    </contour>
  </outline>
</glyph>
<glyph name="copyright" format="1">
  <advance width="1805"/>
  <unicode hex="00A9"/>
  <outline>
    <contour>
      <point x="879" y="253" type="curve" smooth="yes"/>
      <point x="1151" y="253"/>
      <point x="1320" y="373"/>
      <point x="1345" y="605" type="curve"/>
      <point x="1357" y="728" type="line"/>
      <point x="1017" y="728" type="line"/>
      <point x="1004" y="599" type="line" smooth="yes"/>
      <point x="995" y="515"/>
      <point x="965" y="480"/>
      <point x="905" y="480" type="curve" smooth="yes"/>
      <point x="851" y="480"/>
      <point x="821" y="509"/>
      <point x="832" y="621" type="curve" smooth="yes"/>
      <point x="878" y="1055" type="line" smooth="yes"/>
      <point x="890" y="1164"/>
      <point x="922" y="1199"/>
      <point x="980" y="1199" type="curve" smooth="yes"/>
      <point x="1035" y="1199"/>
      <point x="1064" y="1174"/>
      <point x="1054" y="1077" type="curve" smooth="yes"/>
      <point x="1042" y="965" type="line"/>
      <point x="1382" y="965" type="line"/>
      <point x="1394" y="1075" type="line"/>
      <point x="1418" y="1311"/>
      <point x="1276" y="1424"/>
      <point x="1003" y="1424" type="curve" smooth="yes"/>
      <point x="717" y="1424"/>
      <point x="547" y="1278"/>
      <point x="521" y="1030" type="curve" smooth="yes"/>
      <point x="481" y="648" type="line" smooth="yes"/>
      <point x="455" y="401"/>
      <point x="594" y="253"/>
    </contour>
    <contour>
      <point x="862" y="57" type="curve" smooth="yes"/>
      <point x="360" y="57"/>
      <point x="182" y="442"/>
      <point x="223" y="832" type="curve" smooth="yes"/>
      <point x="263" y="1223"/>
      <point x="523" y="1602"/>
      <point x="1025" y="1602" type="curve" smooth="yes"/>
      <point x="1525" y="1602"/>
      <point x="1705" y="1223"/>
      <point x="1664" y="832" type="curve" smooth="yes"/>
      <point x="1623" y="442"/>
      <point x="1362" y="57"/>
    </contour>
    <contour>
      <point x="851" y="-26" type="curve" smooth="yes"/>
      <point x="1433" y="-26"/>
      <point x="1714" y="419"/>
      <point x="1757" y="833" type="curve" smooth="yes"/>
      <point x="1800" y="1247"/>
      <point x="1611" y="1692"/>
      <point x="1031" y="1692" type="curve" smooth="yes"/>
      <point x="450" y="1692"/>
      <point x="166" y="1247"/>
      <point x="123" y="833" type="curve" smooth="yes"/>
      <point x="80" y="420"/>
      <point x="269" y="-26"/>
    </contour>
  </outline>
</glyph>
<glyph name="uni00AD" format="1">
  <advance width="758"/>
  <unicode hex="00AD"/>
  <outline>
    <contour>
      <point x="143" y="582" type="line"/>
      <point x="652" y="582" type="line"/>
      <point x="674" y="795" type="line"/>
      <point x="165" y="795" type="line"/>
    </contour>
  </outline>
</glyph>
<glyph name="registered" format="1">
  <advance width="1824"/>
  <unicode hex="00AE"/>
  <outline>
    <contour>
      <point x="567" y="315" type="line"/>
      <point x="837" y="315" type="line"/>
      <point x="837" y="755" type="line"/>
      <point x="892" y="755" type="line"/>
      <point x="1031" y="315" type="line"/>
      <point x="1315" y="315" type="line"/>
      <point x="1135" y="808" type="line"/>
      <point x="1247" y="861"/>
      <point x="1283" y="936"/>
      <point x="1283" y="1066" type="curve" smooth="yes"/>
      <point x="1283" y="1283"/>
      <point x="1143" y="1349"/>
      <point x="907" y="1349" type="curve" smooth="yes"/>
      <point x="567" y="1349" type="line"/>
    </contour>
    <contour>
      <point x="837" y="892" type="line"/>
      <point x="837" y="1190" type="line"/>
      <point x="901" y="1190" type="line" smooth="yes"/>
      <point x="993" y="1190"/>
      <point x="1029" y="1134"/>
      <point x="1029" y="1047" type="curve" smooth="yes"/>
      <point x="1029" y="952"/>
      <point x="995" y="892"/>
      <point x="878" y="892" type="curve" smooth="yes"/>
    </contour>
    <contour>
      <point x="912" y="81" type="curve" smooth="yes"/>
      <point x="430" y="81"/>
      <point x="221" y="454"/>
      <point x="221" y="827" type="curve" smooth="yes"/>
      <point x="221" y="1202"/>
      <point x="430" y="1571"/>
      <point x="912" y="1571" type="curve" smooth="yes"/>
      <point x="1390" y="1571"/>
      <point x="1600" y="1202"/>
      <point x="1600" y="827" type="curve" smooth="yes"/>
      <point x="1600" y="454"/>
      <point x="1390" y="81"/>
    </contour>
    <contour>
      <point x="913" y="-28" type="curve" smooth="yes"/>
      <point x="1493" y="-28"/>
      <point x="1726" y="415"/>
      <point x="1726" y="828" type="curve" smooth="yes"/>
      <point x="1726" y="1241"/>
      <point x="1491" y="1684"/>
      <point x="913" y="1684" type="curve" smooth="yes"/>
      <point x="333" y="1684"/>
      <point x="98" y="1241"/>
      <point x="98" y="828" type="curve" smooth="yes"/>
      <point x="98" y="417"/>
      <point x="333" y="-28"/>
    </contour>
  </outline>
</glyph>
<glyph name="macron" format="1">
  <advance width="366"/>
  <unicode hex="00AF"/>
  <outline>
    <contour>
      <point x="-67" y="1501" type="line"/>
      <point x="449" y="1501" type="line"/>
      <point x="449" y="1658" type="line"/>
      <point x="-67" y="1658" type="line"/>
    </contour>
  </outline>
</glyph>
<glyph name="degree" format="1">
  <advance width="1097"/>
  <unicode hex="00B0"/>
  <outline>
    <contour>
      <point x="608" y="1054" type="curve" smooth="yes"/>
      <point x="481" y="1054"/>
      <point x="419" y="1149"/>
      <point x="432" y="1278" type="curve" smooth="yes"/>
      <point x="446" y="1408"/>
      <point x="527" y="1498"/>
      <point x="655" y="1498" type="curve" smooth="yes"/>
      <point x="784" y="1498"/>
      <point x="845" y="1406"/>
      <point x="832" y="1277" type="curve" smooth="yes"/>
      <point x="818" y="1148"/>
      <point x="737" y="1054"/>
    </contour>
    <contour>
      <point x="589" y="874" type="curve" smooth="yes"/>
      <point x="838" y="874"/>
      <point x="1017" y="1034"/>
      <point x="1042" y="1278" type="curve" smooth="yes"/>
      <point x="1068" y="1522"/>
      <point x="921" y="1680"/>
      <point x="674" y="1680" type="curve" smooth="yes"/>
      <point x="427" y="1680"/>
      <point x="248" y="1523"/>
      <point x="223" y="1278" type="curve" smooth="yes"/>
      <point x="197" y="1034"/>
      <point x="341" y="874"/>
    </contour>
  </outline>
</glyph>
<glyph name="plusminus" format="1">
  <advance width="984"/>
  <unicode hex="00B1"/>
  <outline>
    <contour>
      <point x="387" y="377" type="line"/>
      <point x="598" y="377" type="line"/>
      <point x="598" y="641" type="line"/>
      <point x="852" y="641" type="line"/>
      <point x="852" y="838" type="line"/>
      <point x="598" y="838" type="line"/>
      <point x="598" y="1101" type="line"/>
      <point x="387" y="1101" type="line"/>
      <point x="387" y="838" type="line"/>
      <point x="132" y="838" type="line"/>
      <point x="132" y="641" type="line"/>
      <point x="387" y="641" type="line"/>
    </contour>
    <contour>
      <point x="132" y="0" type="line"/>
      <point x="852" y="0" type="line"/>
      <point x="852" y="203" type="line"/>
      <point x="132" y="203" type="line"/>
    </contour>
  </outline>
</glyph>
<glyph name="threesuperior" format="1">
  <advance width="885"/>
  <unicode hex="00B3"/>
  <outline>
    <contour>
      <point x="467" y="602" type="curve" smooth="yes"/>
      <point x="703" y="602"/>
      <point x="796" y="755"/>
      <point x="796" y="975" type="curve" smooth="yes"/>
      <point x="796" y="1148"/>
      <point x="727" y="1217"/>
      <point x="653" y="1246" type="curve"/>
      <point x="727" y="1265"/>
      <point x="796" y="1371"/>
      <point x="796" y="1509" type="curve" smooth="yes"/>
      <point x="796" y="1729"/>
      <point x="671" y="1838"/>
      <point x="461" y="1838" type="curve" smooth="yes"/>
      <point x="256" y="1838"/>
      <point x="130" y="1715"/>
      <point x="130" y="1501" type="curve" smooth="yes"/>
      <point x="130" y="1412" type="line"/>
      <point x="383" y="1412" type="line"/>
      <point x="383" y="1497" type="line" smooth="yes"/>
      <point x="383" y="1581"/>
      <point x="403" y="1636"/>
      <point x="463" y="1636" type="curve" smooth="yes"/>
      <point x="523" y="1636"/>
      <point x="549" y="1589"/>
      <point x="549" y="1497" type="curve" smooth="yes"/>
      <point x="549" y="1380"/>
      <point x="522" y="1310"/>
      <point x="420" y="1310" type="curve" smooth="yes"/>
      <point x="364" y="1310" type="line"/>
      <point x="364" y="1145" type="line"/>
      <point x="425" y="1145" type="line" smooth="yes"/>
      <point x="523" y="1145"/>
      <point x="549" y="1078"/>
      <point x="549" y="962" type="curve" smooth="yes"/>
      <point x="549" y="863"/>
      <point x="529" y="816"/>
      <point x="468" y="816" type="curve" smooth="yes"/>
      <point x="408" y="816"/>
      <point x="383" y="860"/>
      <point x="383" y="983" type="curve" smooth="yes"/>
      <point x="383" y="1041" type="line"/>
      <point x="130" y="1041" type="line"/>
      <point x="130" y="988" type="line" smooth="yes"/>
      <point x="130" y="755"/>
      <point x="206" y="602"/>
    </contour>
  </outline>
</glyph>
<glyph name="paragraph" format="1">
  <advance width="1067"/>
  <unicode hex="00B6"/>
  <outline>
    <contour>
      <point x="386" y="-196" type="line"/>
      <point x="580" y="-196" type="line"/>
      <point x="580" y="1470" type="line"/>
      <point x="745" y="1470" type="line"/>
      <point x="745" y="-196" type="line"/>
      <point x="928" y="-196" type="line"/>
      <point x="928" y="1658" type="line"/>
      <point x="470" y="1658" type="line" smooth="yes"/>
      <point x="258" y="1658"/>
      <point x="72" y="1582"/>
      <point x="72" y="1329" type="curve" smooth="yes"/>
      <point x="72" y="1124"/>
      <point x="200" y="1008"/>
      <point x="386" y="1004" type="curve"/>
    </contour>
  </outline>
</glyph>
<glyph name="Thorn" format="1">
  <advance width="1140"/>
  <unicode hex="00DE"/>
  <outline>
    <contour>
      <point x="57" y="0" type="line"/>
      <point x="417" y="0" type="line"/>
      <point x="467" y="477" type="line"/>
      <point x="609" y="477" type="line" smooth="yes"/>
      <point x="949" y="479"/>
      <point x="1122" y="584"/>
      <point x="1163" y="973" type="curve" smooth="yes"/>
      <point x="1198" y="1303"/>
      <point x="1054" y="1437"/>
      <point x="730" y="1437" type="curve" smooth="yes"/>
      <point x="568" y="1437" type="line"/>
      <point x="591" y="1658" type="line"/>
      <point x="231" y="1658" type="line"/>
    </contour>
    <contour>
      <point x="494" y="735" type="line"/>
      <point x="541" y="1176" type="line"/>
      <point x="666" y="1176" type="line" smooth="yes"/>
      <point x="806" y="1176"/>
      <point x="847" y="1109"/>
      <point x="832" y="958" type="curve" smooth="yes"/>
      <point x="815" y="793"/>
      <point x="752" y="735"/>
      <point x="607" y="735" type="curve" smooth="yes"/>
    </contour>
  </outline>
</glyph>
<glyph name="germandbls" format="1">
  <advance width="1111"/>
  <unicode hex="00DF"/>
  <outline>
    <contour>
      <point x="522" y="-30" type="line"/>
      <point x="857" y="-30"/>
      <point x="1058" y="108"/>
      <point x="1058" y="463" type="curve" smooth="yes"/>
      <point x="1058" y="660"/>
      <point x="934" y="820"/>
      <point x="728" y="879" type="curve"/>
      <point x="901" y="950"/>
      <point x="969" y="1074"/>
      <point x="969" y="1235" type="curve" smooth="yes"/>
      <point x="969" y="1516"/>
      <point x="832" y="1683"/>
      <point x="518" y="1683" type="curve" smooth="yes"/>
      <point x="205" y="1683"/>
      <point x="94" y="1454"/>
      <point x="94" y="1226" type="curve" smooth="yes"/>
      <point x="94" y="0" type="line"/>
      <point x="428" y="0" type="line"/>
      <point x="428" y="1227" type="line" smooth="yes"/>
      <point x="426" y="1356"/>
      <point x="453" y="1449"/>
      <point x="548" y="1449" type="curve" smooth="yes"/>
      <point x="631" y="1449"/>
      <point x="684" y="1376"/>
      <point x="684" y="1229" type="curve" smooth="yes"/>
      <point x="684" y="1065"/>
      <point x="633" y="975"/>
      <point x="536" y="975" type="curve"/>
      <point x="539" y="717" type="line"/>
      <point x="639" y="717"/>
      <point x="719" y="629"/>
      <point x="725" y="503" type="curve" smooth="yes"/>
      <point x="738" y="295"/>
      <point x="661" y="225"/>
      <point x="522" y="225" type="curve"/>
    </contour>
  </outline>
</glyph>
<glyph name="ae" format="1">
  <advance width="1368"/>
  <unicode hex="00E6"/>
  <outline>
    <contour>
      <point x="311" y="-24" type="curve" smooth="yes"/>
      <point x="441" y="-28"/>
      <point x="574" y="45"/>
      <point x="639" y="164" type="curve"/>
      <point x="653" y="42"/>
      <point x="780" y="-24"/>
      <point x="892" y="-24" type="curve" smooth="yes"/>
      <point x="1116" y="-23"/>
      <point x="1248" y="103"/>
      <point x="1272" y="323" type="curve" smooth="yes"/>
      <point x="1282" y="414" type="line"/>
      <point x="977" y="414" type="line"/>
      <point x="970" y="352" type="line" smooth="yes"/>
      <point x="962" y="275"/>
      <point x="955" y="212"/>
      <point x="893" y="212" type="curve" smooth="yes"/>
      <point x="823" y="212"/>
      <point x="835" y="307"/>
      <point x="845" y="406" type="curve" smooth="yes"/>
      <point x="864" y="593" type="line"/>
      <point x="888" y="597"/>
      <point x="956" y="609"/>
      <point x="979" y="615" type="curve" smooth="yes"/>
      <point x="1149" y="652"/>
      <point x="1322" y="718"/>
      <point x="1342" y="910" type="curve" smooth="yes"/>
      <point x="1359" y="1072"/>
      <point x="1263" y="1231"/>
      <point x="1027" y="1231" type="curve" smooth="yes"/>
      <point x="902" y="1231"/>
      <point x="793" y="1163"/>
      <point x="749" y="1076" type="curve"/>
      <point x="734" y="1166"/>
      <point x="646" y="1231"/>
      <point x="520" y="1231" type="curve" smooth="yes"/>
      <point x="265" y="1231"/>
      <point x="125" y="1070"/>
      <point x="100" y="800" type="curve"/>
      <point x="419" y="800" type="line"/>
      <point x="431" y="919"/>
      <point x="463" y="955"/>
      <point x="514" y="955" type="curve" smooth="yes"/>
      <point x="566" y="955"/>
      <point x="587" y="920"/>
      <point x="578" y="839" type="curve" smooth="yes"/>
      <point x="562" y="690" type="line"/>
      <point x="531" y="684"/>
      <point x="442" y="666"/>
      <point x="404" y="657" type="curve" smooth="yes"/>
      <point x="234" y="616"/>
      <point x="68" y="528"/>
      <point x="42" y="276" type="curve"/>
      <point x="22" y="88"/>
      <point x="148" y="-20"/>
    </contour>
    <contour>
      <point x="412" y="202" type="curve" smooth="yes"/>
      <point x="351" y="202"/>
      <point x="333" y="269"/>
      <point x="338" y="317" type="curve" smooth="yes"/>
      <point x="344" y="373"/>
      <point x="385" y="464"/>
      <point x="480" y="516" type="curve" smooth="yes"/>
      <point x="500" y="527"/>
      <point x="524" y="536"/>
      <point x="547" y="543" type="curve"/>
      <point x="529" y="353" type="line" smooth="yes"/>
      <point x="517" y="241"/>
      <point x="467" y="202"/>
    </contour>
    <contour>
      <point x="879" y="743" type="curve"/>
      <point x="894" y="875" type="line" smooth="yes"/>
      <point x="902" y="957"/>
      <point x="945" y="1013"/>
      <point x="1000" y="1013" type="curve" smooth="yes"/>
      <point x="1049" y="1013"/>
      <point x="1073" y="971"/>
      <point x="1065" y="898" type="curve" smooth="yes"/>
      <point x="1058" y="830"/>
      <point x="1029" y="799"/>
      <point x="983" y="778" type="curve" smooth="yes"/>
      <point x="964" y="762"/>
      <point x="908" y="747"/>
    </contour>
  </outline>
</glyph>
<glyph name="eth" format="1">
  <advance width="1064"/>
  <unicode hex="00F0"/>
  <outline>
    <contour>
      <point x="961" y="443" type="curve" smooth="yes"/>
      <point x="961" y="908" type="line" smooth="yes"/>
      <point x="961" y="1229"/>
      <point x="876" y="1426"/>
      <point x="822" y="1513" type="curve"/>
      <point x="980" y="1596" type="line"/>
      <point x="944" y="1684" type="line"/>
      <point x="762" y="1587" type="line"/>
      <point x="678" y="1676"/>
      <point x="525" y="1725"/>
      <point x="289" y="1725" type="curve"/>
      <point x="274" y="1517" type="line"/>
      <point x="410" y="1517"/>
      <point x="492" y="1491"/>
      <point x="523" y="1454" type="curve"/>
      <point x="359" y="1368" type="line"/>
      <point x="396" y="1282" type="line"/>
      <point x="576" y="1375" type="line"/>
      <point x="602" y="1342"/>
      <point x="624" y="1258"/>
      <point x="626" y="1151" type="curve"/>
      <point x="588" y="1172"/>
      <point x="535" y="1190"/>
      <point x="469" y="1190" type="curve" smooth="yes"/>
      <point x="268" y="1190"/>
      <point x="109" y="1026"/>
      <point x="109" y="772" type="curve" smooth="yes"/>
      <point x="109" y="433" type="line" smooth="yes"/>
      <point x="109" y="105"/>
      <point x="282" y="-29"/>
      <point x="529" y="-29" type="curve" smooth="yes"/>
      <point x="771" y="-29"/>
      <point x="961" y="77"/>
    </contour>
    <contour>
      <point x="437" y="593" type="curve" smooth="yes"/>
      <point x="437" y="885"/>
      <point x="455" y="971"/>
      <point x="551" y="971" type="curve" smooth="yes"/>
      <point x="587" y="971"/>
      <point x="610" y="955"/>
      <point x="627" y="947" type="curve"/>
      <point x="627" y="353" type="line" smooth="yes"/>
      <point x="627" y="257"/>
      <point x="610" y="194"/>
      <point x="530" y="194" type="curve" smooth="yes"/>
      <point x="424" y="194"/>
      <point x="437" y="319"/>
    </contour>
  </outline>
</glyph>
<glyph name="thorn" format="1">
  <advance width="1012"/>
  <unicode hex="00FE"/>
  <outline>
    <contour>
      <point x="95" y="-390" type="line"/>
      <point x="429" y="-390" type="line"/>
      <point x="429" y="89" type="line"/>
      <point x="505" y="22"/>
      <point x="591" y="-21"/>
      <point x="676" y="-21" type="curve" smooth="yes"/>
      <point x="846" y="-21"/>
      <point x="936" y="130"/>
      <point x="936" y="349" type="curve" smooth="yes"/>
      <point x="936" y="854" type="line" smooth="yes"/>
      <point x="936" y="1038"/>
      <point x="864" y="1199"/>
      <point x="683" y="1204" type="curve" smooth="yes"/>
      <point x="599" y="1207"/>
      <point x="510" y="1170"/>
      <point x="429" y="1097" type="curve"/>
      <point x="429" y="1658" type="line"/>
      <point x="95" y="1658" type="line"/>
    </contour>
    <contour>
      <point x="518" y="197" type="curve" smooth="yes"/>
      <point x="487" y="197"/>
      <point x="457" y="209"/>
      <point x="429" y="226" type="curve"/>
      <point x="429" y="962" type="line"/>
      <point x="458" y="984"/>
      <point x="488" y="999"/>
      <point x="515" y="1001" type="curve" smooth="yes"/>
      <point x="578" y="1006"/>
      <point x="601" y="944"/>
      <point x="601" y="879" type="curve" smooth="yes"/>
      <point x="601" y="331" type="line" smooth="yes"/>
      <point x="601" y="258"/>
      <point x="581" y="196"/>
    </contour>
  </outline>
</glyph>
<glyph name="gcommaaccent" format="1">
  <advance width="901"/>
  <unicode hex="0123"/>
  <outline>
    <contour>
      <point x="536" y="-361" type="curve" smooth="yes"/>
      <point x="868" y="-361"/>
      <point x="981" y="-226"/>
      <point x="981" y="-57" type="curve" smooth="yes"/>
      <point x="981" y="98"/>
      <point x="904" y="181"/>
      <point x="655" y="221" type="curve" smooth="yes"/>
      <point x="546" y="238"/>
      <point x="452" y="251"/>
      <point x="382" y="264" type="curve" smooth="yes"/>
      <point x="315" y="277"/>
      <point x="274" y="289"/>
      <point x="271" y="305" type="curve" smooth="yes"/>
      <point x="265" y="333"/>
      <point x="293" y="374"/>
      <point x="322" y="410" type="curve"/>
      <point x="378" y="386"/>
      <point x="452" y="370"/>
      <point x="529" y="370" type="curve" smooth="yes"/>
      <point x="798" y="370"/>
      <point x="929" y="529"/>
      <point x="929" y="774" type="curve" smooth="yes"/>
      <point x="929" y="891"/>
      <point x="895" y="965"/>
      <point x="865" y="1005" type="curve"/>
      <point x="930" y="1048"/>
      <point x="1021" y="1097"/>
      <point x="1061" y="1110" type="curve"/>
      <point x="985" y="1261" type="line"/>
      <point x="940" y="1239" type="line"/>
      <point x="883" y="1209"/>
      <point x="826" y="1157"/>
      <point x="779" y="1101" type="curve"/>
      <point x="723" y="1165"/>
      <point x="619" y="1206"/>
      <point x="501" y="1206" type="curve" smooth="yes"/>
      <point x="236" y="1206"/>
      <point x="74" y="1058"/>
      <point x="74" y="770" type="curve" smooth="yes"/>
      <point x="74" y="633"/>
      <point x="124" y="541"/>
      <point x="205" y="484" type="curve"/>
      <point x="121" y="415"/>
      <point x="34" y="333"/>
      <point x="55" y="234" type="curve" smooth="yes"/>
      <point x="65" y="184"/>
      <point x="114" y="148"/>
      <point x="217" y="109" type="curve"/>
      <point x="138" y="52"/>
      <point x="39" y="-30"/>
      <point x="39" y="-122" type="curve" smooth="yes"/>
      <point x="39" y="-334"/>
      <point x="350" y="-361"/>
    </contour>
    <contour>
      <point x="393" y="1483" type="line"/>
      <point x="703" y="1483" type="line"/>
      <point x="703" y="1794" type="line"/>
      <point x="529" y="1794" type="line"/>
      <point x="529" y="1910"/>
      <point x="601" y="1953"/>
      <point x="672" y="1976" type="curve"/>
      <point x="657" y="2073" type="line"/>
      <point x="481" y="2063"/>
      <point x="394" y="1950"/>
      <point x="393" y="1742" type="curve" smooth="yes"/>
    </contour>
    <contour>
      <point x="536" y="-167" type="curve" smooth="yes"/>
      <point x="412" y="-167"/>
      <point x="350" y="-135"/>
      <point x="350" y="-70" type="curve" smooth="yes"/>
      <point x="350" y="-23"/>
      <point x="386" y="23"/>
      <point x="416" y="58" type="curve"/>
      <point x="579" y="33" type="line" smooth="yes"/>
      <point x="692" y="14"/>
      <point x="729" y="-12"/>
      <point x="719" y="-87" type="curve" smooth="yes"/>
      <point x="713" y="-145"/>
      <point x="649" y="-167"/>
    </contour>
    <contour>
      <point x="509" y="560" type="curve" smooth="yes"/>
      <point x="418" y="560"/>
      <point x="408" y="655"/>
      <point x="408" y="789" type="curve" smooth="yes"/>
      <point x="408" y="912"/>
      <point x="412" y="1015"/>
      <point x="507" y="1015" type="curve" smooth="yes"/>
      <point x="603" y="1015"/>
      <point x="612" y="933"/>
      <point x="612" y="789" type="curve" smooth="yes"/>
      <point x="612" y="647"/>
      <point x="601" y="560"/>
    </contour>
  </outline>
</glyph>
<glyph name="dotlessi" format="1">
  <advance width="568"/>
  <unicode hex="0131"/>
  <outline>
    <contour>
      <point x="71" y="0" type="line"/>
      <point x="400" y="0" type="line"/>
      <point x="524" y="1184" type="line"/>
      <point x="195" y="1184" type="line"/>
    </contour>
  </outline>
</glyph>
<glyph name="Lslash" format="1">
  <advance width="921"/>
  <unicode hex="0141"/>
  <outline>
    <contour>
      <point x="138" y="0" type="line"/>
      <point x="883" y="0" type="line"/>
      <point x="883" y="248" type="line"/>
      <point x="504" y="248" type="line"/>
      <point x="504" y="906" type="line"/>
      <point x="706" y="1003" type="line"/>
      <point x="706" y="1206" type="line"/>
      <point x="504" y="1109" type="line"/>
      <point x="504" y="1658" type="line"/>
      <point x="138" y="1658" type="line"/>
      <point x="138" y="936" type="line"/>
      <point x="15" y="876" type="line"/>
      <point x="15" y="672" type="line"/>
      <point x="138" y="732" type="line"/>
    </contour>
  </outline>
</glyph>
<glyph name="OE" format="1">
  <advance width="1472"/>
  <unicode hex="0152"/>
  <outline>
    <contour>
      <point x="605" y="0" type="curve" smooth="yes"/>
      <point x="1419" y="0" type="line"/>
      <point x="1419" y="248" type="line"/>
      <point x="1072" y="248" type="line"/>
      <point x="1072" y="728" type="line"/>
      <point x="1328" y="728" type="line"/>
      <point x="1328" y="984" type="line"/>
      <point x="1072" y="984" type="line"/>
      <point x="1072" y="1403" type="line"/>
      <point x="1418" y="1403" type="line"/>
      <point x="1418" y="1652" type="line"/>
      <point x="600" y="1652" type="line"/>
      <point x="222" y="1652"/>
      <point x="99" y="1403"/>
      <point x="99" y="1064" type="curve" smooth="yes"/>
      <point x="99" y="569" type="line" smooth="yes"/>
      <point x="99" y="220"/>
      <point x="227" y="0"/>
    </contour>
    <contour>
      <point x="607" y="253" type="line"/>
      <point x="475" y="252"/>
      <point x="466" y="377"/>
      <point x="466" y="502" type="curve" smooth="yes"/>
      <point x="466" y="1125" type="line" smooth="yes"/>
      <point x="466" y="1253"/>
      <point x="470" y="1393"/>
      <point x="605" y="1393" type="curve" smooth="yes"/>
      <point x="706" y="1393" type="line"/>
      <point x="706" y="253" type="line"/>
    </contour>
  </outline>
</glyph>
<glyph name="florin" format="1">
  <advance width="939"/>
  <unicode hex="0192"/>
  <outline>
    <contour>
      <point x="201" y="-363" type="curve" smooth="yes"/>
      <point x="488" y="-363"/>
      <point x="540" y="-227"/>
      <point x="562" y="-17" type="curve" smooth="yes"/>
      <point x="662" y="949" type="line"/>
      <point x="818" y="949" type="line"/>
      <point x="818" y="1184" type="line"/>
      <point x="686" y="1184" type="line"/>
      <point x="696" y="1277" type="line" smooth="yes"/>
      <point x="702" y="1341"/>
      <point x="734" y="1368"/>
      <point x="785" y="1368" type="curve" smooth="yes"/>
      <point x="809" y="1368"/>
      <point x="835" y="1362"/>
      <point x="855" y="1359" type="curve"/>
      <point x="880" y="1607" type="line"/>
      <point x="820" y="1614"/>
      <point x="773" y="1617"/>
      <point x="722" y="1617" type="curve" smooth="yes"/>
      <point x="436" y="1617"/>
      <point x="382" y="1481"/>
      <point x="361" y="1271" type="curve" smooth="yes"/>
      <point x="353" y="1184" type="line"/>
      <point x="212" y="1184" type="line"/>
      <point x="212" y="949" type="line"/>
      <point x="328" y="949" type="line"/>
      <point x="227" y="-22" type="line" smooth="yes"/>
      <point x="221" y="-86"/>
      <point x="189" y="-114"/>
      <point x="138" y="-114" type="curve" smooth="yes"/>
      <point x="115" y="-114"/>
      <point x="88" y="-108"/>
      <point x="68" y="-105" type="curve"/>
      <point x="43" y="-353" type="line"/>
      <point x="103" y="-360"/>
      <point x="150" y="-363"/>
    </contour>
  </outline>
</glyph>
<glyph name="breve" format="1">
  <advance width="669"/>
  <unicode hex="02D8"/>
  <outline>
    <contour>
      <point x="418" y="1397" type="curve" smooth="yes"/>
      <point x="592" y="1397"/>
      <point x="693" y="1496"/>
      <point x="709" y="1658" type="curve"/>
      <point x="564" y="1658" type="line"/>
      <point x="555" y="1573"/>
      <point x="520" y="1533"/>
      <point x="432" y="1533" type="curve" smooth="yes"/>
      <point x="344" y="1533"/>
      <point x="317" y="1572"/>
      <point x="327" y="1658" type="curve"/>
      <point x="181" y="1658" type="line"/>
      <point x="164" y="1495"/>
      <point x="246" y="1397"/>
    </contour>
  </outline>
</glyph>
<glyph name="dotaccent" format="1">
  <advance width="522"/>
  <unicode hex="02D9"/>
  <outline>
    <contour>
      <point x="121" y="1323" type="line"/>
      <point x="436" y="1323" type="line"/>
      <point x="436" y="1634" type="line"/>
      <point x="121" y="1634" type="line"/>
    </contour>
  </outline>
</glyph>
<glyph name="ring" format="1">
  <advance width="189"/>
  <unicode hex="02DA"/>
  <outline>
    <contour>
      <point x="180" y="1345" type="curve" smooth="yes"/>
      <point x="112" y="1345"/>
      <point x="82" y="1396"/>
      <point x="88" y="1455" type="curve" smooth="yes"/>
      <point x="94" y="1514"/>
      <point x="134" y="1563"/>
      <point x="203" y="1563" type="curve" smooth="yes"/>
      <point x="270" y="1563"/>
      <point x="300" y="1514"/>
      <point x="294" y="1455" type="curve" smooth="yes"/>
      <point x="288" y="1396"/>
      <point x="248" y="1345"/>
    </contour>
    <contour>
      <point x="168" y="1226" type="curve" smooth="yes"/>
      <point x="300" y="1226"/>
      <point x="417" y="1307"/>
      <point x="433" y="1455" type="curve" smooth="yes"/>
      <point x="448" y="1602"/>
      <point x="347" y="1682"/>
      <point x="215" y="1682" type="curve" smooth="yes"/>
      <point x="84" y="1682"/>
      <point x="-33" y="1603"/>
      <point x="-47" y="1455" type="curve" smooth="yes"/>
      <point x="-63" y="1307"/>
      <point x="36" y="1226"/>
    </contour>
  </outline>
</glyph>
<glyph name="hungarumlaut" format="1">
  <advance width="880"/>
  <unicode hex="02DD"/>
  <outline>
    <contour>
      <point x="182" y="1222" type="line"/>
      <point x="349" y="1222" type="line"/>
      <point x="612" y="1658" type="line"/>
      <point x="345" y="1658" type="line"/>
    </contour>
    <contour>
      <point x="539" y="1222" type="line"/>
      <point x="710" y="1222" type="line"/>
      <point x="1003" y="1658" type="line"/>
      <point x="715" y="1658" type="line"/>
    </contour>
  </outline>
</glyph>
<glyph name="uni0311" format="1">
  <advance width="669"/>
  <unicode hex="0311"/>
  <outline>
    <contour>
      <point x="154" y="1397" type="curve"/>
      <point x="299" y="1397" type="line"/>
      <point x="308" y="1483"/>
      <point x="343" y="1522"/>
      <point x="431" y="1522" type="curve" smooth="yes"/>
      <point x="519" y="1522"/>
      <point x="545" y="1484"/>
      <point x="536" y="1397" type="curve"/>
      <point x="682" y="1397" type="line"/>
      <point x="699" y="1560"/>
      <point x="618" y="1658"/>
      <point x="445" y="1658" type="curve" smooth="yes"/>
      <point x="271" y="1658"/>
      <point x="170" y="1560"/>
    </contour>
  </outline>
</glyph>
<glyph name="afii10058" format="1">
  <advance width="1812"/>
  <unicode hex="0409"/>
  <outline>
    <contour>
      <point x="-29" y="0" type="line"/>
      <point x="95" y="-1" type="line" smooth="yes"/>
      <point x="411" y="-4"/>
      <point x="549" y="138"/>
      <point x="626" y="599" type="curve" smooth="yes"/>
      <point x="758" y="1384" type="line"/>
      <point x="947" y="1384" type="line"/>
      <point x="801" y="0" type="line"/>
      <point x="1189" y="0" type="line" smooth="yes"/>
      <point x="1488" y="0"/>
      <point x="1725" y="80"/>
      <point x="1767" y="481" type="curve" smooth="yes"/>
      <point x="1802" y="819"/>
      <point x="1639" y="959"/>
      <point x="1319" y="959" type="curve" smooth="yes"/>
      <point x="1262" y="959" type="line"/>
      <point x="1335" y="1658" type="line"/>
      <point x="462" y="1658" type="line"/>
      <point x="279" y="605" type="line" smooth="yes"/>
      <point x="226" y="298"/>
      <point x="167" y="249"/>
      <point x="-2" y="254" type="curve"/>
    </contour>
    <contour>
      <point x="1186" y="239" type="line"/>
      <point x="1236" y="709" type="line"/>
      <point x="1262" y="709" type="line" smooth="yes"/>
      <point x="1417" y="709"/>
      <point x="1445" y="618"/>
      <point x="1434" y="488" type="curve" smooth="yes"/>
      <point x="1419" y="310"/>
      <point x="1359" y="239"/>
      <point x="1217" y="239" type="curve" smooth="yes"/>
    </contour>
  </outline>
</glyph>
<glyph name="afii10060" format="1">
  <advance width="1200"/>
  <unicode hex="040B"/>
  <outline>
    <contour>
      <point x="185" y="0" type="line"/>
      <point x="543" y="0" type="line"/>
      <point x="623" y="756" type="line"/>
      <point x="648" y="768"/>
      <point x="693" y="789"/>
      <point x="731" y="790" type="curve" smooth="yes"/>
      <point x="785" y="790"/>
      <point x="795" y="763"/>
      <point x="791" y="716" type="curve" smooth="yes"/>
      <point x="715" y="0" type="line"/>
      <point x="1043" y="0" type="line"/>
      <point x="1123" y="758" type="line" smooth="yes"/>
      <point x="1137" y="891"/>
      <point x="1053" y="981"/>
      <point x="894" y="981" type="curve" smooth="yes"/>
      <point x="762" y="981"/>
      <point x="641" y="926"/>
      <point x="641" y="926" type="curve"/>
      <point x="689" y="1392" type="line"/>
      <point x="923" y="1392" type="line"/>
      <point x="951" y="1658" type="line"/>
      <point x="137" y="1658" type="line"/>
      <point x="109" y="1392" type="line"/>
      <point x="331" y="1392" type="line"/>
    </contour>
  </outline>
</glyph>
<glyph name="afii10145" format="1">
  <advance width="1221"/>
  <unicode hex="040F"/>
  <outline>
    <contour>
      <point x="397" y="-355" type="line"/>
      <point x="657" y="-355" type="line"/>
      <point x="709" y="0" type="line"/>
      <point x="1049" y="0" type="line"/>
      <point x="1223" y="1658" type="line"/>
      <point x="863" y="1658" type="line"/>
      <point x="717" y="272" type="line"/>
      <point x="461" y="272" type="line"/>
      <point x="606" y="1658" type="line"/>
      <point x="246" y="1658" type="line"/>
      <point x="72" y="0" type="line"/>
      <point x="420" y="0" type="line"/>
    </contour>
  </outline>
</glyph>
<glyph name="afii10018" format="1">
  <advance width="1125"/>
  <unicode hex="0411"/>
  <outline>
    <contour>
      <point x="79" y="0" type="line"/>
      <point x="479" y="0" type="line" smooth="yes"/>
      <point x="779" y="0"/>
      <point x="1015" y="80"/>
      <point x="1057" y="481" type="curve" smooth="yes"/>
      <point x="1092" y="819"/>
      <point x="929" y="959"/>
      <point x="609" y="959" type="curve" smooth="yes"/>
      <point x="540" y="959" type="line"/>
      <point x="584" y="1386" type="line"/>
      <point x="1041" y="1386" type="line"/>
      <point x="1070" y="1658" type="line"/>
      <point x="253" y="1658" type="line"/>
    </contour>
    <contour>
      <point x="464" y="239" type="line"/>
      <point x="514" y="709" type="line"/>
      <point x="552" y="709" type="line" smooth="yes"/>
      <point x="707" y="709"/>
      <point x="735" y="618"/>
      <point x="724" y="488" type="curve" smooth="yes"/>
      <point x="709" y="310"/>
      <point x="649" y="239"/>
      <point x="507" y="239" type="curve" smooth="yes"/>
    </contour>
  </outline>
</glyph>
<glyph name="afii10019" format="1">
  <advance width="1206"/>
  <unicode hex="0412"/>
  <outline>
    <contour>
      <point x="129" y="0" type="line"/>
      <point x="639" y="0" type="line" smooth="yes"/>
      <point x="956" y="0"/>
      <point x="1145" y="148"/>
      <point x="1140" y="492" type="curve" smooth="yes"/>
      <point x="1137" y="729"/>
      <point x="1036" y="866"/>
      <point x="845" y="891" type="curve"/>
      <point x="995" y="918"/>
      <point x="1085" y="1022"/>
      <point x="1089" y="1224" type="curve" smooth="yes"/>
      <point x="1096" y="1593"/>
      <point x="845" y="1658"/>
      <point x="561" y="1658" type="curve" smooth="yes"/>
      <point x="129" y="1658" type="line"/>
    </contour>
    <contour>
      <point x="496" y="256" type="line"/>
      <point x="496" y="753" type="line"/>
      <point x="567" y="753" type="line" smooth="yes"/>
      <point x="731" y="753"/>
      <point x="787" y="683"/>
      <point x="787" y="497" type="curve" smooth="yes"/>
      <point x="787" y="337"/>
      <point x="736" y="256"/>
      <point x="572" y="256" type="curve" smooth="yes"/>
    </contour>
    <contour>
      <point x="496" y="995" type="line"/>
      <point x="496" y="1412" type="line"/>
      <point x="554" y="1412" type="line" smooth="yes"/>
      <point x="693" y="1412"/>
      <point x="769" y="1351"/>
      <point x="769" y="1216" type="curve" smooth="yes"/>
      <point x="769" y="1074"/>
      <point x="731" y="995"/>
      <point x="565" y="995" type="curve" smooth="yes"/>
    </contour>
  </outline>
</glyph>
<glyph name="afii10021" format="1">
  <advance width="1413"/>
  <unicode hex="0414"/>
  <outline>
    <contour>
      <point x="-53" y="-355" type="line"/>
      <point x="199" y="-355" type="line"/>
      <point x="256" y="0" type="line"/>
      <point x="1066" y="0" type="line"/>
      <point x="1049" y="-355" type="line"/>
      <point x="1289" y="-355" type="line"/>
      <point x="1354" y="257" type="line"/>
      <point x="1167" y="257" type="line"/>
      <point x="1313" y="1658" type="line"/>
      <point x="544" y="1658" type="line"/>
      <point x="443" y="1090" type="line" smooth="yes"/>
      <point x="344" y="517"/>
      <point x="220" y="312"/>
      <point x="63" y="257" type="curve"/>
      <point x="12" y="257" type="line"/>
    </contour>
    <contour>
      <point x="401" y="257" type="line"/>
      <point x="518" y="353"/>
      <point x="641" y="455"/>
      <point x="737" y="1050" type="curve"/>
      <point x="792" y="1403" type="line"/>
      <point x="950" y="1403" type="line"/>
      <point x="830" y="257" type="line"/>
    </contour>
  </outline>
</glyph>
<glyph name="afii10024" format="1">
  <advance width="1612"/>
  <unicode hex="0416"/>
  <outline>
    <contour>
      <point x="-41" y="0" type="line"/>
      <point x="284" y="0" type="line"/>
      <point x="681" y="807" type="line"/>
      <point x="699" y="807" type="line"/>
      <point x="614" y="0" type="line"/>
      <point x="899" y="0" type="line"/>
      <point x="984" y="807" type="line"/>
      <point x="1002" y="807" type="line"/>
      <point x="1228" y="0" type="line"/>
      <point x="1553" y="0" type="line"/>
      <point x="1290" y="834" type="line"/>
      <point x="1715" y="1658" type="line"/>
      <point x="1379" y="1658" type="line"/>
      <point x="1009" y="880" type="line"/>
      <point x="991" y="880" type="line"/>
      <point x="1073" y="1658" type="line"/>
      <point x="788" y="1658" type="line"/>
      <point x="706" y="880" type="line"/>
      <point x="689" y="880" type="line"/>
      <point x="482" y="1658" type="line"/>
      <point x="145" y="1658" type="line"/>
      <point x="398" y="834" type="line"/>
    </contour>
  </outline>
</glyph>
<glyph name="afii10029" format="1">
  <advance width="1332"/>
  <unicode hex="041B"/>
  <outline>
    <contour>
      <point x="-38" y="0" type="line"/>
      <point x="509" y="-31"/>
      <point x="548" y="179"/>
      <point x="658" y="830" type="curve" smooth="yes"/>
      <point x="750" y="1384" type="line"/>
      <point x="939" y="1384" type="line"/>
      <point x="793" y="0" type="line"/>
      <point x="1153" y="0" type="line"/>
      <point x="1327" y="1658" type="line"/>
      <point x="455" y="1658" type="line"/>
      <point x="321" y="893" type="line" smooth="yes"/>
      <point x="214" y="295"/>
      <point x="207" y="252"/>
      <point x="-11" y="254" type="curve"/>
    </contour>
  </outline>
</glyph>
<glyph name="afii10030" format="1">
  <advance width="1436"/>
  <unicode hex="041C"/>
  <outline>
    <contour>
      <point x="67" y="0" type="line"/>
      <point x="327" y="0" type="line"/>
      <point x="463" y="1080" type="line"/>
      <point x="582" y="0" type="line"/>
      <point x="764" y="0" type="line"/>
      <point x="1101" y="1073" type="line"/>
      <point x="1012" y="0" type="line"/>
      <point x="1269" y="0" type="line"/>
      <point x="1416" y="1658" type="line"/>
      <point x="1051" y="1658" type="line"/>
      <point x="741" y="692" type="line"/>
      <point x="646" y="1658" type="line"/>
      <point x="269" y="1658" type="line"/>
    </contour>
  </outline>
</glyph>
<glyph name="afii10031" format="1">
  <advance width="1218"/>
  <unicode hex="041D"/>
  <outline>
    <contour>
      <point x="122" y="0" type="line"/>
      <point x="488" y="0" type="line"/>
      <point x="488" y="726" type="line"/>
      <point x="730" y="726" type="line"/>
      <point x="730" y="0" type="line"/>
      <point x="1096" y="0" type="line"/>
      <point x="1096" y="1658" type="line"/>
      <point x="730" y="1658" type="line"/>
      <point x="730" y="988" type="line"/>
      <point x="488" y="988" type="line"/>
      <point x="488" y="1658" type="line"/>
      <point x="122" y="1658" type="line"/>
    </contour>
  </outline>
</glyph>
<glyph name="afii10037" format="1">
  <advance width="1127"/>
  <unicode hex="0423"/>
  <outline>
    <contour>
      <point x="108" y="-327" type="line"/>
      <point x="558" y="-336"/>
      <point x="679" y="-259"/>
      <point x="763" y="116" type="curve" smooth="yes"/>
      <point x="1104" y="1658" type="line"/>
      <point x="759" y="1658" type="line"/>
      <point x="641" y="980" type="line"/>
      <point x="591" y="532" type="line"/>
      <point x="525" y="980" type="line"/>
      <point x="384" y="1658" type="line"/>
      <point x="44" y="1658" type="line"/>
      <point x="413" y="167" type="line" smooth="yes"/>
      <point x="462" y="-33"/>
      <point x="343" y="-93"/>
      <point x="108" y="-84" type="curve"/>
    </contour>
  </outline>
</glyph>
<glyph name="afii10038" format="1">
  <advance width="1553"/>
  <unicode hex="0424"/>
  <outline>
    <contour>
      <point x="627" y="-58" type="line"/>
      <point x="924" y="-58" type="line"/>
      <point x="924" y="188" type="line"/>
      <point x="973" y="186" type="line"/>
      <point x="1260" y="161"/>
      <point x="1458" y="337"/>
      <point x="1458" y="591" type="curve" smooth="yes"/>
      <point x="1458" y="1086" type="line" smooth="yes"/>
      <point x="1458" y="1341"/>
      <point x="1260" y="1514"/>
      <point x="962" y="1492" type="curve"/>
      <point x="924" y="1491" type="line"/>
      <point x="924" y="1758" type="line"/>
      <point x="627" y="1758" type="line"/>
      <point x="627" y="1491" type="line"/>
      <point x="627" y="1491"/>
      <point x="580" y="1492"/>
      <point x="580" y="1492" type="curve"/>
      <point x="294" y="1514"/>
      <point x="95" y="1341"/>
      <point x="95" y="1087" type="curve" smooth="yes"/>
      <point x="95" y="592" type="line" smooth="yes"/>
      <point x="95" y="337"/>
      <point x="293" y="162"/>
      <point x="591" y="186" type="curve"/>
      <point x="591" y="186"/>
      <point x="627" y="187"/>
      <point x="627" y="187" type="curve"/>
    </contour>
    <contour>
      <point x="597" y="412" type="curve" smooth="yes"/>
      <point x="460" y="409"/>
      <point x="418" y="484"/>
      <point x="418" y="588" type="curve" smooth="yes"/>
      <point x="418" y="1091" type="line" smooth="yes"/>
      <point x="418" y="1195"/>
      <point x="461" y="1276"/>
      <point x="594" y="1277" type="curve" smooth="yes"/>
      <point x="602" y="1277"/>
      <point x="618" y="1276"/>
      <point x="627" y="1276" type="curve"/>
      <point x="627" y="413" type="line"/>
      <point x="619" y="413"/>
      <point x="604" y="412"/>
    </contour>
    <contour>
      <point x="958" y="412" type="curve" smooth="yes"/>
      <point x="950" y="412"/>
      <point x="932" y="413"/>
      <point x="924" y="414" type="curve"/>
      <point x="924" y="1276" type="line"/>
      <point x="931" y="1276"/>
      <point x="948" y="1277"/>
      <point x="954" y="1277" type="curve" smooth="yes"/>
      <point x="1092" y="1275"/>
      <point x="1135" y="1194"/>
      <point x="1135" y="1090" type="curve" smooth="yes"/>
      <point x="1135" y="587" type="line" smooth="yes"/>
      <point x="1135" y="481"/>
      <point x="1090" y="410"/>
    </contour>
  </outline>
</glyph>
<glyph name="afii10047" format="1">
  <advance width="1169"/>
  <unicode hex="042D"/>
  <outline>
    <contour>
      <point x="524" y="-16" type="curve" smooth="yes"/>
      <point x="901" y="-16"/>
      <point x="1041" y="196"/>
      <point x="1077" y="542" type="curve"/>
      <point x="1140" y="1132" type="line"/>
      <point x="1175" y="1469"/>
      <point x="1080" y="1688"/>
      <point x="703" y="1688" type="curve" smooth="yes"/>
      <point x="334" y="1688"/>
      <point x="206" y="1477"/>
      <point x="176" y="1192" type="curve" smooth="yes"/>
      <point x="168" y="1111" type="line"/>
      <point x="520" y="1111" type="line"/>
      <point x="531" y="1220" type="line" smooth="yes"/>
      <point x="542" y="1327"/>
      <point x="556" y="1433"/>
      <point x="675" y="1433" type="curve" smooth="yes"/>
      <point x="783" y="1433"/>
      <point x="795" y="1345"/>
      <point x="782" y="1220" type="curve" smooth="yes"/>
      <point x="752" y="925" type="line"/>
      <point x="479" y="925" type="line"/>
      <point x="460" y="741" type="line"/>
      <point x="733" y="741" type="line"/>
      <point x="702" y="455" type="line" smooth="yes"/>
      <point x="691" y="345"/>
      <point x="671" y="239"/>
      <point x="550" y="239" type="curve" smooth="yes"/>
      <point x="427" y="239"/>
      <point x="439" y="344"/>
      <point x="450" y="444" type="curve" smooth="yes"/>
      <point x="461" y="551" type="line"/>
      <point x="109" y="551" type="line"/>
      <point x="100" y="463" type="line"/>
      <point x="70" y="180"/>
      <point x="160" y="-16"/>
    </contour>
  </outline>
</glyph>
<glyph name="afii10068" format="1">
  <advance width="711"/>
  <unicode hex="0433"/>
  <outline>
    <contour>
      <point x="55" y="0" type="line"/>
      <point x="383" y="0" type="line"/>
      <point x="485" y="963" type="line"/>
      <point x="739" y="963" type="line"/>
      <point x="761" y="1184" type="line"/>
      <point x="179" y="1184" type="line"/>
    </contour>
  </outline>
</glyph>
<glyph name="afii10069" format="1">
  <advance width="1239"/>
  <unicode hex="0434"/>
  <outline>
    <contour>
      <point x="63" y="-322" type="line"/>
      <point x="305" y="-322" type="line"/>
      <point x="325" y="0" type="line"/>
      <point x="943" y="0" type="line"/>
      <point x="966" y="-322" type="line"/>
      <point x="1205" y="-322" type="line"/>
      <point x="1205" y="207" type="line"/>
      <point x="1033" y="207" type="line"/>
      <point x="1033" y="1184" type="line"/>
      <point x="382" y="1184" type="line"/>
      <point x="350" y="813" type="line" smooth="yes"/>
      <point x="332" y="470"/>
      <point x="241" y="291"/>
      <point x="63" y="204" type="curve"/>
    </contour>
    <contour>
      <point x="423" y="207" type="line"/>
      <point x="519" y="287"/>
      <point x="593" y="422"/>
      <point x="607" y="736" type="curve" smooth="yes"/>
      <point x="629" y="982" type="line"/>
      <point x="727" y="982" type="line"/>
      <point x="727" y="207" type="line"/>
    </contour>
  </outline>
</glyph>
<glyph name="afii10070" format="1">
  <advance width="966"/>
  <unicode hex="0435"/>
  <outline>
    <contour>
      <point x="491" y="-21" type="curve" smooth="yes"/>
      <point x="738" y="-21"/>
      <point x="885" y="104"/>
      <point x="885" y="343" type="curve" smooth="yes"/>
      <point x="885" y="457" type="line"/>
      <point x="575" y="457" type="line"/>
      <point x="575" y="333" type="line" smooth="yes"/>
      <point x="575" y="250"/>
      <point x="543" y="218"/>
      <point x="491" y="218" type="curve" smooth="yes"/>
      <point x="432" y="218"/>
      <point x="412" y="271"/>
      <point x="412" y="363" type="curve" smooth="yes"/>
      <point x="412" y="571" type="line"/>
      <point x="885" y="571" type="line"/>
      <point x="885" y="804" type="line" smooth="yes"/>
      <point x="885" y="1064"/>
      <point x="756" y="1204"/>
      <point x="491" y="1204" type="curve" smooth="yes"/>
      <point x="232" y="1204"/>
      <point x="81" y="1059"/>
      <point x="81" y="804" type="curve" smooth="yes"/>
      <point x="81" y="380" type="line" smooth="yes"/>
      <point x="81" y="126"/>
      <point x="230" y="-21"/>
    </contour>
    <contour>
      <point x="412" y="727" type="line"/>
      <point x="412" y="825" type="line" smooth="yes"/>
      <point x="412" y="932"/>
      <point x="440" y="966"/>
      <point x="490" y="966" type="curve" smooth="yes"/>
      <point x="541" y="966"/>
      <point x="575" y="938"/>
      <point x="575" y="845" type="curve" smooth="yes"/>
      <point x="575" y="727" type="line"/>
    </contour>
  </outline>
</glyph>
<glyph name="afii10072" format="1">
  <advance width="1352"/>
  <unicode hex="0436"/>
  <outline>
    <contour>
      <point x="14" y="0" type="line"/>
      <point x="293" y="0" type="line"/>
      <point x="508" y="572" type="line"/>
      <point x="530" y="572" type="line"/>
      <point x="530" y="0" type="line"/>
      <point x="809" y="0" type="line"/>
      <point x="809" y="572" type="line"/>
      <point x="831" y="572" type="line"/>
      <point x="1060" y="0" type="line"/>
      <point x="1339" y="0" type="line"/>
      <point x="1091" y="596" type="line"/>
      <point x="1325" y="1184" type="line"/>
      <point x="1032" y="1184" type="line"/>
      <point x="831" y="622" type="line"/>
      <point x="809" y="622" type="line"/>
      <point x="809" y="1184" type="line"/>
      <point x="530" y="1184" type="line"/>
      <point x="530" y="622" type="line"/>
      <point x="508" y="622" type="line"/>
      <point x="320" y="1184" type="line"/>
      <point x="27" y="1184" type="line"/>
      <point x="249" y="596" type="line"/>
    </contour>
  </outline>
</glyph>
<glyph name="afii10073" format="1">
  <advance width="910"/>
  <unicode hex="0437"/>
  <outline>
    <contour>
      <point x="399" y="-21" type="curve" smooth="yes"/>
      <point x="683" y="-21"/>
      <point x="816" y="123"/>
      <point x="837" y="325" type="curve" smooth="yes"/>
      <point x="858" y="524"/>
      <point x="782" y="579"/>
      <point x="687" y="615" type="curve"/>
      <point x="779" y="640"/>
      <point x="872" y="710"/>
      <point x="889" y="873" type="curve" smooth="yes"/>
      <point x="909" y="1057"/>
      <point x="811" y="1204"/>
      <point x="538" y="1204" type="curve" smooth="yes"/>
      <point x="231" y="1204"/>
      <point x="130" y="1034"/>
      <point x="107" y="814" type="curve"/>
      <point x="368" y="814" type="line"/>
      <point x="380" y="937"/>
      <point x="416" y="976"/>
      <point x="498" y="976" type="curve" smooth="yes"/>
      <point x="572" y="976"/>
      <point x="600" y="931"/>
      <point x="591" y="848" type="curve" smooth="yes"/>
      <point x="580" y="739"/>
      <point x="540" y="700"/>
      <point x="372" y="700" type="curve"/>
      <point x="353" y="526" type="line"/>
      <point x="520" y="526"/>
      <point x="573" y="487"/>
      <point x="561" y="367" type="curve" smooth="yes"/>
      <point x="550" y="274"/>
      <point x="523" y="203"/>
      <point x="431" y="203" type="curve" smooth="yes"/>
      <point x="349" y="203"/>
      <point x="317" y="262"/>
      <point x="331" y="392" type="curve"/>
      <point x="67" y="392" type="line"/>
      <point x="44" y="168"/>
      <point x="81" y="-21"/>
    </contour>
  </outline>
</glyph>
<glyph name="afii10078" format="1">
  <advance width="1186"/>
  <unicode hex="043C"/>
  <outline>
    <contour>
      <point x="53" y="0" type="line"/>
      <point x="310" y="0" type="line"/>
      <point x="376" y="622" type="line"/>
      <point x="514" y="178" type="line"/>
      <point x="611" y="178" type="line"/>
      <point x="842" y="621" type="line"/>
      <point x="776" y="0" type="line"/>
      <point x="1034" y="0" type="line"/>
      <point x="1154" y="1184" type="line"/>
      <point x="911" y="1184" type="line"/>
      <point x="608" y="610" type="line"/>
      <point x="424" y="1184" type="line"/>
      <point x="181" y="1184" type="line"/>
    </contour>
  </outline>
</glyph>
<glyph name="afii10079" format="1">
  <advance width="1067"/>
  <unicode hex="043D"/>
  <outline>
    <contour>
      <point x="55" y="0" type="line"/>
      <point x="383" y="0" type="line"/>
      <point x="435" y="497" type="line"/>
      <point x="636" y="497" type="line"/>
      <point x="584" y="0" type="line"/>
      <point x="912" y="0" type="line"/>
      <point x="1036" y="1184" type="line"/>
      <point x="708" y="1184" type="line"/>
      <point x="660" y="724" type="line"/>
      <point x="459" y="724" type="line"/>
      <point x="507" y="1184" type="line"/>
      <point x="179" y="1184" type="line"/>
    </contour>
  </outline>
</glyph>
<glyph name="afii10080" format="1">
  <advance width="986"/>
  <unicode hex="043E"/>
  <outline>
    <contour>
      <point x="492" y="218" type="curve" smooth="yes"/>
      <point x="427" y="218"/>
      <point x="410" y="273"/>
      <point x="410" y="360" type="curve" smooth="yes"/>
      <point x="410" y="824" type="line" smooth="yes"/>
      <point x="410" y="910"/>
      <point x="427" y="966"/>
      <point x="492" y="966" type="curve" smooth="yes"/>
      <point x="559" y="966"/>
      <point x="575" y="912"/>
      <point x="575" y="824" type="curve" smooth="yes"/>
      <point x="575" y="360" type="line" smooth="yes"/>
      <point x="575" y="271"/>
      <point x="559" y="218"/>
    </contour>
    <contour>
      <point x="491" y="-21" type="curve" smooth="yes"/>
      <point x="744" y="-21"/>
      <point x="905" y="111"/>
      <point x="905" y="368" type="curve" smooth="yes"/>
      <point x="905" y="815" type="line" smooth="yes"/>
      <point x="905" y="1072"/>
      <point x="744" y="1204"/>
      <point x="491" y="1204" type="curve" smooth="yes"/>
      <point x="238" y="1204"/>
      <point x="81" y="1072"/>
      <point x="81" y="815" type="curve" smooth="yes"/>
      <point x="81" y="368" type="line" smooth="yes"/>
      <point x="81" y="112"/>
      <point x="238" y="-21"/>
    </contour>
  </outline>
</glyph>
<glyph name="afii10082" format="1">
  <advance width="1026"/>
  <unicode hex="0440"/>
  <outline>
    <contour>
      <point x="104" y="-390" type="line"/>
      <point x="438" y="-390" type="line"/>
      <point x="438" y="89" type="line"/>
      <point x="515" y="22"/>
      <point x="600" y="-21"/>
      <point x="685" y="-21" type="curve" smooth="yes"/>
      <point x="856" y="-21"/>
      <point x="945" y="130"/>
      <point x="945" y="349" type="curve" smooth="yes"/>
      <point x="945" y="854" type="line" smooth="yes"/>
      <point x="945" y="1038"/>
      <point x="874" y="1199"/>
      <point x="693" y="1204" type="curve" smooth="yes"/>
      <point x="608" y="1207"/>
      <point x="520" y="1170"/>
      <point x="438" y="1097" type="curve"/>
      <point x="438" y="1184" type="line"/>
      <point x="104" y="1184" type="line"/>
    </contour>
    <contour>
      <point x="528" y="197" type="curve" smooth="yes"/>
      <point x="496" y="197"/>
      <point x="466" y="209"/>
      <point x="438" y="226" type="curve"/>
      <point x="438" y="962" type="line"/>
      <point x="468" y="984"/>
      <point x="498" y="999"/>
      <point x="525" y="1001" type="curve" smooth="yes"/>
      <point x="587" y="1006"/>
      <point x="611" y="944"/>
      <point x="611" y="879" type="curve" smooth="yes"/>
      <point x="611" y="331" type="line" smooth="yes"/>
      <point x="611" y="258"/>
      <point x="590" y="196"/>
    </contour>
  </outline>
</glyph>
<glyph name="afii10085" format="1">
  <advance width="959"/>
  <unicode hex="0443"/>
  <outline>
    <contour>
      <point x="125" y="-377" type="line"/>
      <point x="508" y="-377"/>
      <point x="560" y="-316"/>
      <point x="635" y="-20" type="curve" smooth="yes"/>
      <point x="939" y="1184" type="line"/>
      <point x="642" y="1184" type="line"/>
      <point x="557" y="748" type="line"/>
      <point x="485" y="382" type="line"/>
      <point x="406" y="748" type="line"/>
      <point x="310" y="1184" type="line"/>
      <point x="24" y="1184" type="line"/>
      <point x="312" y="66" type="line" smooth="yes"/>
      <point x="353" y="-108"/>
      <point x="339" y="-138"/>
      <point x="100" y="-139" type="curve"/>
    </contour>
  </outline>
</glyph>
<glyph name="afii10086" format="1">
  <advance width="1417"/>
  <unicode hex="0444"/>
  <outline>
    <contour>
      <point x="476" y="-356" type="line"/>
      <point x="762" y="-356" type="line"/>
      <point x="802" y="20" type="line"/>
      <point x="840" y="20" type="line" smooth="yes"/>
      <point x="1011" y="20"/>
      <point x="1294" y="112"/>
      <point x="1329" y="444" type="curve" smooth="yes"/>
      <point x="1363" y="769" type="line" smooth="yes"/>
      <point x="1393" y="1056"/>
      <point x="1176" y="1178"/>
      <point x="961" y="1178" type="curve" smooth="yes"/>
      <point x="923" y="1178" type="line"/>
      <point x="973" y="1657" type="line"/>
      <point x="688" y="1657" type="line"/>
      <point x="638" y="1178" type="line"/>
      <point x="606" y="1178" type="line" smooth="yes"/>
      <point x="394" y="1178"/>
      <point x="146" y="1056"/>
      <point x="116" y="769" type="curve" smooth="yes"/>
      <point x="82" y="444" type="line" smooth="yes"/>
      <point x="47" y="112"/>
      <point x="310" y="20"/>
      <point x="484" y="20" type="curve" smooth="yes"/>
      <point x="516" y="20" type="line"/>
    </contour>
    <contour>
      <point x="513" y="217" type="line"/>
      <point x="421" y="217"/>
      <point x="371" y="289"/>
      <point x="386" y="423" type="curve" smooth="yes"/>
      <point x="424" y="797" type="line" smooth="yes"/>
      <point x="438" y="929"/>
      <point x="509" y="994"/>
      <point x="594" y="994" type="curve" smooth="yes"/>
      <point x="618" y="994" type="line"/>
      <point x="536" y="217" type="line"/>
    </contour>
    <contour>
      <point x="822" y="217" type="line"/>
      <point x="904" y="994" type="line"/>
      <point x="926" y="994" type="line" smooth="yes"/>
      <point x="1011" y="994"/>
      <point x="1074" y="929"/>
      <point x="1060" y="797" type="curve" smooth="yes"/>
      <point x="1021" y="423" type="line" smooth="yes"/>
      <point x="1007" y="289"/>
      <point x="929" y="217"/>
      <point x="843" y="217" type="curve" smooth="yes"/>
    </contour>
  </outline>
</glyph>
<glyph name="afii10091" format="1">
  <advance width="1582"/>
  <unicode hex="0449"/>
  <outline>
    <contour>
      <point x="1197" y="-321" type="line"/>
      <point x="1433" y="-321" type="line"/>
      <point x="1487" y="205" type="line"/>
      <point x="1317" y="205" type="line"/>
      <point x="1419" y="1184" type="line"/>
      <point x="1109" y="1184" type="line"/>
      <point x="1006" y="205" type="line"/>
      <point x="849" y="205" type="line"/>
      <point x="952" y="1184" type="line"/>
      <point x="641" y="1184" type="line"/>
      <point x="539" y="205" type="line"/>
      <point x="386" y="205" type="line"/>
      <point x="489" y="1184" type="line"/>
      <point x="179" y="1184" type="line"/>
      <point x="55" y="0" type="line"/>
      <point x="1208" y="0" type="line"/>
    </contour>
  </outline>
</glyph>
<glyph name="afii10094" format="1">
  <advance width="997"/>
  <unicode hex="044C"/>
  <outline>
    <contour>
      <point x="55" y="0" type="line"/>
      <point x="393" y="0" type="line" smooth="yes"/>
      <point x="749" y="0"/>
      <point x="904" y="94"/>
      <point x="930" y="347" type="curve"/>
      <point x="960" y="631"/>
      <point x="795" y="705"/>
      <point x="468" y="706" type="curve" smooth="yes"/>
      <point x="457" y="706" type="line"/>
      <point x="507" y="1184" type="line"/>
      <point x="179" y="1184" type="line"/>
    </contour>
    <contour>
      <point x="403" y="188" type="line"/>
      <point x="437" y="513" type="line"/>
      <point x="446" y="513" type="line" smooth="yes"/>
      <point x="593" y="511"/>
      <point x="647" y="477"/>
      <point x="633" y="345" type="curve" smooth="yes"/>
      <point x="620" y="223"/>
      <point x="560" y="190"/>
      <point x="409" y="188" type="curve" smooth="yes"/>
    </contour>
  </outline>
</glyph>
<glyph name="afii10095" format="1">
  <advance width="967"/>
  <unicode hex="044D"/>
  <outline>
    <contour>
      <point x="428" y="-20" type="curve" smooth="yes"/>
      <point x="691" y="-20"/>
      <point x="849" y="129"/>
      <point x="876" y="381" type="curve"/>
      <point x="920" y="801" type="line" smooth="yes"/>
      <point x="947" y="1053"/>
      <point x="820" y="1204"/>
      <point x="557" y="1204" type="curve" smooth="yes"/>
      <point x="307" y="1204"/>
      <point x="149" y="1082"/>
      <point x="124" y="843" type="curve" smooth="yes"/>
      <point x="116" y="766" type="line"/>
      <point x="431" y="766" type="line"/>
      <point x="440" y="850" type="line" smooth="yes"/>
      <point x="449" y="936"/>
      <point x="476" y="969"/>
      <point x="530" y="969" type="curve" smooth="yes"/>
      <point x="580" y="969"/>
      <point x="605" y="941"/>
      <point x="593" y="828" type="curve" smooth="yes"/>
      <point x="575" y="655" type="line"/>
      <point x="305" y="655" type="line"/>
      <point x="290" y="513" type="line"/>
      <point x="560" y="513" type="line"/>
      <point x="543" y="357" type="line" smooth="yes"/>
      <point x="532" y="247"/>
      <point x="504" y="213"/>
      <point x="451" y="213" type="curve" smooth="yes"/>
      <point x="401" y="213"/>
      <point x="375" y="238"/>
      <point x="386" y="335" type="curve" smooth="yes"/>
      <point x="392" y="395" type="line"/>
      <point x="77" y="395" type="line"/>
      <point x="71" y="337" type="line"/>
      <point x="45" y="96"/>
      <point x="176" y="-20"/>
    </contour>
  </outline>
</glyph>
<glyph name="afii10097" format="1">
  <advance width="1047"/>
  <unicode hex="044F"/>
  <outline>
    <contour>
      <point x="-18" y="0" type="line"/>
      <point x="331" y="0" type="line"/>
      <point x="513" y="428" type="line"/>
      <point x="539" y="426"/>
      <point x="596" y="426"/>
      <point x="608" y="426" type="curve"/>
      <point x="564" y="0" type="line"/>
      <point x="892" y="0" type="line"/>
      <point x="1016" y="1184" type="line"/>
      <point x="592" y="1184" type="line" smooth="yes"/>
      <point x="270" y="1184"/>
      <point x="132" y="1037"/>
      <point x="109" y="814" type="curve" smooth="yes"/>
      <point x="93" y="663"/>
      <point x="129" y="542"/>
      <point x="220" y="490" type="curve"/>
    </contour>
    <contour>
      <point x="617" y="618" type="line"/>
      <point x="467" y="619"/>
      <point x="393" y="683"/>
      <point x="407" y="815" type="curve" smooth="yes"/>
      <point x="420" y="937"/>
      <point x="504" y="997"/>
      <point x="658" y="998" type="curve" smooth="yes"/>
      <point x="668" y="998" type="line"/>
      <point x="629" y="618" type="line"/>
    </contour>
  </outline>
</glyph>
<glyph name="afii10103" format="1">
  <advance width="515"/>
  <unicode hex="0456"/>
  <outline>
    <contour>
      <point x="47" y="0" type="line"/>
      <point x="375" y="0" type="line"/>
      <point x="499" y="1184" type="line"/>
      <point x="171" y="1184" type="line"/>
    </contour>
    <contour>
      <point x="191" y="1374" type="line"/>
      <point x="520" y="1374" type="line"/>
      <point x="545" y="1609" type="line"/>
      <point x="215" y="1609" type="line"/>
    </contour>
  </outline>
</glyph>
<glyph name="afii10105" format="1">
  <advance width="523"/>
  <unicode hex="0458"/>
  <outline>
    <contour>
      <point x="-109" y="-336" type="line"/>
      <point x="-58" y="-351"/>
      <point x="0" y="-362"/>
      <point x="62" y="-362" type="curve" smooth="yes"/>
      <point x="263" y="-362"/>
      <point x="381" y="-233"/>
      <point x="401" y="-46" type="curve" smooth="yes"/>
      <point x="530" y="1184" type="line"/>
      <point x="201" y="1184" type="line"/>
      <point x="76" y="-7" type="line" smooth="yes"/>
      <point x="69" y="-79"/>
      <point x="30" y="-108"/>
      <point x="-26" y="-108" type="curve" smooth="yes"/>
      <point x="-45" y="-108"/>
      <point x="-67" y="-104"/>
      <point x="-85" y="-100" type="curve"/>
    </contour>
    <contour>
      <point x="221" y="1382" type="line"/>
      <point x="551" y="1382" type="line"/>
      <point x="576" y="1617" type="line"/>
      <point x="246" y="1617" type="line"/>
    </contour>
  </outline>
</glyph>
<glyph name="afii10106" format="1">
  <advance width="1637"/>
  <unicode hex="0459"/>
  <outline>
    <contour>
      <point x="16" y="-3" type="line"/>
      <point x="44" y="-7"/>
      <point x="79" y="-10"/>
      <point x="104" y="-12" type="curve" smooth="yes"/>
      <point x="416" y="-28"/>
      <point x="513" y="74"/>
      <point x="604" y="603" type="curve"/>
      <point x="668" y="959" type="line"/>
      <point x="806" y="959" type="line"/>
      <point x="705" y="0" type="line"/>
      <point x="1044" y="0" type="line" smooth="yes"/>
      <point x="1392" y="2"/>
      <point x="1544" y="97"/>
      <point x="1570" y="347" type="curve"/>
      <point x="1599" y="627"/>
      <point x="1438" y="706"/>
      <point x="1121" y="706" type="curve" smooth="yes"/>
      <point x="1108" y="706" type="line"/>
      <point x="1158" y="1184" type="line"/>
      <point x="411" y="1184" type="line"/>
      <point x="320" y="673" type="line"/>
      <point x="248" y="264"/>
      <point x="220" y="208"/>
      <point x="40" y="221" type="curve"/>
    </contour>
    <contour>
      <point x="1053" y="188" type="line"/>
      <point x="1087" y="512" type="line"/>
      <point x="1093" y="512" type="line" smooth="yes"/>
      <point x="1233" y="512"/>
      <point x="1286" y="476"/>
      <point x="1272" y="345" type="curve" smooth="yes"/>
      <point x="1259" y="227"/>
      <point x="1203" y="189"/>
      <point x="1061" y="188" type="curve" smooth="yes"/>
    </contour>
  </outline>
</glyph>
<glyph name="afii10107" format="1">
  <advance width="1483"/>
  <unicode hex="045A"/>
  <outline>
    <contour>
      <point x="104" y="0" type="line"/>
      <point x="438" y="0" type="line"/>
      <point x="438" y="439" type="line"/>
      <point x="608" y="439" type="line"/>
      <point x="608" y="1" type="line"/>
      <point x="942" y="2" type="line" smooth="yes"/>
      <point x="1290" y="3"/>
      <point x="1432" y="99"/>
      <point x="1432" y="348" type="curve" smooth="yes"/>
      <point x="1432" y="622"/>
      <point x="1269" y="702"/>
      <point x="963" y="708" type="curve" smooth="yes"/>
      <point x="956" y="708"/>
      <point x="949" y="708"/>
      <point x="942" y="708" type="curve"/>
      <point x="942" y="1185" type="line"/>
      <point x="608" y="1185" type="line"/>
      <point x="608" y="711" type="line"/>
      <point x="438" y="711" type="line"/>
      <point x="438" y="1184" type="line"/>
      <point x="104" y="1184" type="line"/>
    </contour>
    <contour>
      <point x="942" y="192" type="curve"/>
      <point x="942" y="511" type="line"/>
      <point x="945" y="511"/>
      <point x="948" y="511"/>
      <point x="951" y="511" type="curve" smooth="yes"/>
      <point x="1078" y="506"/>
      <point x="1130" y="470"/>
      <point x="1130" y="346" type="curve" smooth="yes"/>
      <point x="1130" y="234"/>
      <point x="1081" y="198"/>
      <point x="952" y="193" type="curve" smooth="yes"/>
      <point x="948" y="193"/>
      <point x="945" y="192"/>
    </contour>
  </outline>
</glyph>
<glyph name="afii10193" format="1">
  <advance width="1051"/>
  <unicode hex="045F"/>
  <outline>
    <contour>
      <point x="336" y="-322" type="line"/>
      <point x="567" y="-322" type="line"/>
      <point x="619" y="0" type="line"/>
      <point x="897" y="0" type="line"/>
      <point x="1021" y="1184" type="line"/>
      <point x="692" y="1184" type="line"/>
      <point x="590" y="203" type="line"/>
      <point x="404" y="203" type="line"/>
      <point x="507" y="1184" type="line"/>
      <point x="179" y="1184" type="line"/>
      <point x="55" y="0" type="line"/>
      <point x="348" y="0" type="line"/>
    </contour>
  </outline>
</glyph>
<glyph name="uni04B0" format="1">
  <advance width="1028"/>
  <unicode hex="04B0"/>
  <outline>
    <contour>
      <point x="55" y="585" type="line"/>
      <point x="981" y="585" type="line"/>
      <point x="1005" y="809" type="line"/>
      <point x="78" y="809" type="line"/>
    </contour>
    <component base="uni04AE" xOffset="-14"/>
  </outline>
</glyph>
<glyph name="emdash" format="1">
  <advance width="2047"/>
  <unicode hex="2014"/>
  <outline>
    <contour>
      <point x="21" y="665" type="line"/>
      <point x="2066" y="665" type="line"/>
      <point x="2089" y="888" type="line"/>
      <point x="45" y="888" type="line"/>
    </contour>
  </outline>
</glyph>
<glyph name="quoteright" format="1">
  <advance width="470"/>
  <unicode hex="2019"/>
  <outline>
    <contour>
      <point x="231" y="1075" type="line"/>
      <point x="420" y="1075"/>
      <point x="484" y="1196"/>
      <point x="518" y="1433" type="curve" smooth="yes"/>
      <point x="524" y="1479"/>
      <point x="537" y="1598"/>
      <point x="543" y="1658" type="curve"/>
      <point x="249" y="1658" type="line"/>
      <point x="219" y="1369" type="line"/>
      <point x="360" y="1369" type="line"/>
      <point x="349" y="1257"/>
      <point x="322" y="1180"/>
      <point x="217" y="1180" type="curve"/>
    </contour>
  </outline>
</glyph>
<glyph name="quotesinglbase" format="1">
  <advance width="572"/>
  <unicode hex="201A"/>
  <outline>
    <contour>
      <point x="192" y="-225" type="line"/>
      <point x="382" y="-225"/>
      <point x="434" y="-105"/>
      <point x="443" y="133" type="curve" smooth="yes"/>
      <point x="445" y="182"/>
      <point x="445" y="296"/>
      <point x="445" y="359" type="curve"/>
      <point x="149" y="359" type="line"/>
      <point x="149" y="67" type="line"/>
      <point x="292" y="67" type="line"/>
      <point x="292" y="-42"/>
      <point x="273" y="-119"/>
      <point x="167" y="-119" type="curve"/>
    </contour>
  </outline>
</glyph>
<glyph name="quotedblleft" format="1">
  <advance width="970"/>
  <unicode hex="201C"/>
  <outline>
    <contour>
      <point x="117" y="1094" type="curve"/>
      <point x="413" y="1094" type="line"/>
      <point x="413" y="1386" type="line"/>
      <point x="270" y="1386" type="line"/>
      <point x="270" y="1495"/>
      <point x="289" y="1572"/>
      <point x="395" y="1572" type="curve"/>
      <point x="370" y="1678" type="line"/>
      <point x="180" y="1678"/>
      <point x="128" y="1558"/>
      <point x="119" y="1320" type="curve" smooth="yes"/>
      <point x="117" y="1271"/>
      <point x="117" y="1157"/>
    </contour>
    <contour>
      <point x="558" y="1094" type="curve"/>
      <point x="854" y="1094" type="line"/>
      <point x="854" y="1386" type="line"/>
      <point x="711" y="1386" type="line"/>
      <point x="711" y="1495"/>
      <point x="730" y="1572"/>
      <point x="836" y="1572" type="curve"/>
      <point x="811" y="1678" type="line"/>
      <point x="621" y="1678"/>
      <point x="569" y="1558"/>
      <point x="560" y="1320" type="curve" smooth="yes"/>
      <point x="558" y="1271"/>
      <point x="558" y="1157"/>
    </contour>
  </outline>
</glyph>
<glyph name="guilsinglleft" format="1">
  <advance width="583"/>
  <unicode hex="2039"/>
  <outline>
    <contour>
      <point x="494" y="41" type="line"/>
      <point x="494" y="365" type="line"/>
      <point x="274" y="582" type="line"/>
      <point x="494" y="796" type="line"/>
      <point x="494" y="1120" type="line"/>
      <point x="70" y="668" type="line"/>
      <point x="70" y="493" type="line"/>
    </contour>
  </outline>
</glyph>
<glyph name="guilsinglright" format="1">
  <advance width="564"/>
  <unicode hex="203A"/>
  <outline>
    <contour>
      <point x="83" y="75" type="line"/>
      <point x="507" y="556" type="line"/>
      <point x="507" y="672" type="line"/>
      <point x="83" y="1153" type="line"/>
      <point x="83" y="829" type="line"/>
      <point x="310" y="615" type="line"/>
      <point x="83" y="398" type="line"/>
    </contour>
  </outline>
</glyph>
<glyph name="Euro" format="1">
  <advance width="1137"/>
  <unicode hex="20AC"/>
  <outline>
    <contour>
      <point x="559" y="-23" type="curve" smooth="yes"/>
      <point x="928" y="-23"/>
      <point x="1056" y="188"/>
      <point x="1086" y="473" type="curve"/>
      <point x="1092" y="529" type="line"/>
      <point x="740" y="529" type="line"/>
      <point x="731" y="445" type="line" smooth="yes"/>
      <point x="720" y="338"/>
      <point x="706" y="232"/>
      <point x="587" y="232" type="curve" smooth="yes"/>
      <point x="478" y="232"/>
      <point x="466" y="320"/>
      <point x="480" y="445" type="curve" smooth="yes"/>
      <point x="500" y="643" type="line"/>
      <point x="708" y="643" type="line"/>
      <point x="721" y="762" type="line"/>
      <point x="513" y="762" type="line"/>
      <point x="526" y="887" type="line"/>
      <point x="734" y="887" type="line"/>
      <point x="747" y="1006" type="line"/>
      <point x="539" y="1006" type="line"/>
      <point x="559" y="1210" type="line" smooth="yes"/>
      <point x="571" y="1320"/>
      <point x="591" y="1426"/>
      <point x="712" y="1426" type="curve" smooth="yes"/>
      <point x="834" y="1426"/>
      <point x="823" y="1321"/>
      <point x="812" y="1221" type="curve" smooth="yes"/>
      <point x="800" y="1101" type="line"/>
      <point x="1152" y="1101" type="line"/>
      <point x="1163" y="1202" type="line" smooth="yes"/>
      <point x="1193" y="1485"/>
      <point x="1102" y="1681"/>
      <point x="738" y="1681" type="curve" smooth="yes"/>
      <point x="361" y="1681"/>
      <point x="221" y="1469"/>
      <point x="185" y="1123" type="curve"/>
      <point x="172" y="1006" type="line"/>
      <point x="68" y="1006" type="line"/>
      <point x="56" y="887" type="line"/>
      <point x="160" y="887" type="line"/>
      <point x="146" y="762" type="line"/>
      <point x="42" y="762" type="line"/>
      <point x="30" y="643" type="line"/>
      <point x="134" y="643" type="line"/>
      <point x="123" y="533" type="line"/>
      <point x="87" y="196"/>
      <point x="182" y="-23"/>
    </contour>
  </outline>
</glyph>
<glyph name="trademark" format="1">
  <advance width="1761"/>
  <unicode hex="2122"/>
  <outline>
    <contour>
      <point x="816" y="662" type="line"/>
      <point x="1001" y="662" type="line"/>
      <point x="1061" y="1229" type="line"/>
      <point x="1175" y="662" type="line"/>
      <point x="1276" y="662" type="line"/>
      <point x="1504" y="1224" type="line"/>
      <point x="1445" y="662" type="line"/>
      <point x="1631" y="662" type="line"/>
      <point x="1736" y="1658" type="line"/>
      <point x="1500" y="1658" type="line"/>
      <point x="1262" y="1048" type="line"/>
      <point x="1156" y="1658" type="line"/>
      <point x="921" y="1658" type="line"/>
    </contour>
    <contour>
      <point x="331" y="662" type="line"/>
      <point x="552" y="662" type="line"/>
      <point x="636" y="1469" type="line"/>
      <point x="820" y="1469" type="line"/>
      <point x="839" y="1658" type="line"/>
      <point x="245" y="1658" type="line"/>
      <point x="226" y="1469" type="line"/>
      <point x="416" y="1469" type="line"/>
    </contour>
  </outline>
</glyph>
<glyph name="estimated" format="1">
  <advance width="949"/>
  <unicode hex="212E"/>
  <outline>
    <contour>
      <point x="445" y="-20" type="curve" smooth="yes"/>
      <point x="696" y="-20"/>
      <point x="834" y="61"/>
      <point x="860" y="300" type="curve" smooth="yes"/>
      <point x="876" y="455" type="line"/>
      <point x="659" y="455" type="line"/>
      <point x="636" y="239" type="line" smooth="yes"/>
      <point x="624" y="133"/>
      <point x="606" y="60"/>
      <point x="469" y="60" type="curve" smooth="yes"/>
      <point x="329" y="60"/>
      <point x="326" y="136"/>
      <point x="338" y="243" type="curve" smooth="yes"/>
      <point x="372" y="571" type="line"/>
      <point x="888" y="571" type="line"/>
      <point x="916" y="837" type="line" smooth="yes"/>
      <point x="944" y="1101"/>
      <point x="834" y="1204"/>
      <point x="567" y="1204" type="curve" smooth="yes"/>
      <point x="307" y="1204"/>
      <point x="145" y="1097"/>
      <point x="118" y="839" type="curve" smooth="yes"/>
      <point x="65" y="337" type="line" smooth="yes"/>
      <point x="39" y="81"/>
      <point x="182" y="-20"/>
    </contour>
    <contour>
      <point x="382" y="662" type="line"/>
      <point x="412" y="950" type="line" smooth="yes"/>
      <point x="424" y="1062"/>
      <point x="448" y="1123"/>
      <point x="561" y="1123" type="curve" smooth="yes"/>
      <point x="675" y="1123"/>
      <point x="693" y="1061"/>
      <point x="683" y="966" type="curve" smooth="yes"/>
      <point x="651" y="662" type="line"/>
    </contour>
  </outline>
</glyph>
<glyph name="summation" format="1">
  <advance width="876"/>
  <unicode hex="2211"/>
  <outline>
    <contour>
      <point x="-37" y="-390" type="line"/>
      <point x="732" y="-390" type="line"/>
      <point x="758" y="-146" type="line"/>
      <point x="363" y="-146" type="line"/>
      <point x="689" y="676" type="line"/>
      <point x="534" y="1411" type="line"/>
      <point x="917" y="1411" type="line"/>
      <point x="943" y="1658" type="line"/>
      <point x="178" y="1658" type="line"/>
      <point x="337" y="670" type="line"/>
    </contour>
  </outline>
</glyph>
<glyph name="uni2215" format="1">
  <advance width="859"/>
  <unicode hex="2215"/>
  <outline>
    <contour>
      <point x="37" y="0" type="line"/>
      <point x="220" y="0" type="line"/>
      <point x="896" y="1658" type="line"/>
      <point x="712" y="1658" type="line"/>
    </contour>
  </outline>
</glyph>
<glyph name="notequal" format="1">
  <advance width="925"/>
  <unicode hex="2260"/>
  <outline>
    <contour>
      <point x="121" y="0" type="line"/>
      <point x="303" y="0" type="line"/>
      <point x="457" y="508" type="line"/>
      <point x="798" y="508" type="line"/>
      <point x="798" y="712" type="line"/>
      <point x="519" y="712" type="line"/>
      <point x="576" y="896" type="line"/>
      <point x="798" y="896" type="line"/>
      <point x="798" y="1100" type="line"/>
      <point x="638" y="1100" type="line"/>
      <point x="808" y="1658" type="line"/>
      <point x="625" y="1658" type="line"/>
      <point x="455" y="1100" type="line"/>
      <point x="146" y="1100" type="line"/>
      <point x="146" y="896" type="line"/>
      <point x="393" y="896" type="line"/>
      <point x="337" y="712" type="line"/>
      <point x="146" y="712" type="line"/>
      <point x="146" y="508" type="line"/>
      <point x="274" y="508" type="line"/>
    </contour>
  </outline>
</glyph>
<glyph name="uniFB02" format="1">
  <advance width="1129"/>
  <unicode hex="FB02"/>
  <outline>
    <contour>
      <point x="88" y="0" type="line"/>
      <point x="416" y="0" type="line"/>
      <point x="516" y="952" type="line"/>
      <point x="645" y="952" type="line"/>
      <point x="669" y="1184" type="line"/>
      <point x="540" y="1184" type="line"/>
      <point x="540" y="1184"/>
      <point x="549" y="1264"/>
      <point x="549" y="1265" type="curve" smooth="yes"/>
      <point x="559" y="1357"/>
      <point x="575" y="1430"/>
      <point x="735" y="1430" type="curve" smooth="yes"/>
      <point x="756" y="1430"/>
      <point x="781" y="1429"/>
      <point x="808" y="1426" type="curve"/>
      <point x="658" y="0" type="line"/>
      <point x="987" y="0" type="line"/>
      <point x="1156" y="1606" type="line"/>
      <point x="983" y="1639"/>
      <point x="842" y="1653"/>
      <point x="728" y="1653" type="curve" smooth="yes"/>
      <point x="288" y="1653"/>
      <point x="240" y="1444"/>
      <point x="221" y="1265" type="curve"/>
      <point x="212" y="1184" type="line"/>
      <point x="97" y="1184" type="line"/>
      <point x="73" y="952" type="line"/>
      <point x="188" y="952" type="line"/>
    </contour>
  </outline>
</glyph>
<glyph name="uniFB03" format="1">
  <advance width="1646"/>
  <unicode hex="FB03"/>
  <outline>
    <contour>
      <point x="1244" y="1383" type="line"/>
      <point x="1551" y="1383" type="line"/>
      <point x="1551" y="1618" type="line"/>
      <point x="1244" y="1618" type="line"/>
    </contour>
    <contour>
      <point x="136" y="0" type="line"/>
      <point x="469" y="0" type="line"/>
      <point x="469" y="959" type="line"/>
      <point x="678" y="959" type="line"/>
      <point x="678" y="0" type="line"/>
      <point x="1012" y="0" type="line"/>
      <point x="1012" y="959" type="line"/>
      <point x="1217" y="959" type="line"/>
      <point x="1217" y="0" type="line"/>
      <point x="1551" y="0" type="line"/>
      <point x="1551" y="1184" type="line"/>
      <point x="1012" y="1184" type="line"/>
      <point x="1012" y="1277" type="line" smooth="yes"/>
      <point x="1012" y="1341"/>
      <point x="1035" y="1368"/>
      <point x="1081" y="1368" type="curve" smooth="yes"/>
      <point x="1101" y="1368"/>
      <point x="1125" y="1362"/>
      <point x="1145" y="1359" type="curve"/>
      <point x="1145" y="1607" type="line"/>
      <point x="1084" y="1614"/>
      <point x="1054" y="1617"/>
      <point x="1003" y="1617" type="curve" smooth="yes"/>
      <point x="715" y="1617"/>
      <point x="678" y="1478"/>
      <point x="678" y="1267" type="curve" smooth="yes"/>
      <point x="678" y="1184" type="line"/>
      <point x="469" y="1184" type="line"/>
      <point x="469" y="1277" type="line" smooth="yes"/>
      <point x="469" y="1341"/>
      <point x="490" y="1368"/>
      <point x="536" y="1368" type="curve" smooth="yes"/>
      <point x="555" y="1368"/>
      <point x="579" y="1362"/>
      <point x="598" y="1359" type="curve"/>
      <point x="598" y="1607" type="line"/>
      <point x="537" y="1614"/>
      <point x="512" y="1617"/>
      <point x="461" y="1617" type="curve" smooth="yes"/>
      <point x="173" y="1617"/>
      <point x="136" y="1478"/>
      <point x="136" y="1267" type="curve" smooth="yes"/>
      <point x="136" y="1184" type="line"/>
      <point x="22" y="1184" type="line"/>
      <point x="22" y="959" type="line"/>
      <point x="136" y="959" type="line"/>
    </contour>
  </outline>
</glyph>
<glyph name="uni04AE" format="1">
  <advance width="1009"/>
  <outline>
    <contour>
      <point x="330" y="0" type="line"/>
      <point x="682" y="0" type="line"/>
      <point x="682" y="714" type="line"/>
      <point x="994" y="1658" type="line"/>
      <point x="660" y="1658" type="line"/>
      <point x="568" y="1281" type="line"/>
      <point x="518" y="1059" type="line"/>
      <point x="462" y="1282" type="line"/>
      <point x="360" y="1658" type="line"/>
      <point x="15" y="1658" type="line"/>
      <point x="330" y="714" type="line"/>
    </contour>
  </outline>
</glyph>
